    -1
  2417
      1001         0         0         0         0         0       463
MESH_CHECK_FEL1 - GRP001                
         8      1430         8      1431         8      1432         8      1433
         8      1456         8      1457         8      1458         8      1494
         8      1569         8      1570         8      1571         8      1572
         8      1573         8      1574         8      1594         8      1595
         8      1601         8      1602         8      1680         8      1681
         8      1704         8      1705         8      1711         8      1715
         8      1716         8      1736         8      1739         8      1740
         8      1771         8      1772         8      1774         8      1775
         8      1777         8      1795         8      1796         8      1850
         8      1851         8      1905         8      1906         8      1910
         8      1984         8      1985         8      2078         8      2079
         8      2402         8      2403         8      2406         8      2408
         8      2413         8      2859         8      2860         8      2866
         8      2874         8      2914         8      2915         8      2916
         8      2917         8      2918         8      2919         8      2920
         8      2921         8      2922         8      2923         8      2924
         8      2925         8      2933         8      2937         8      2980
         8      2981         8      2982         8      3085         8      3086
         8      3087         8      3092         8      3094         8      3119
         8      3120         8      3130         8      3131         8      3132
         8      3133         8      3134         8      3141         8      3142
         8      3143         8      3144         8      3145         8      3146
         8      3162         8      3163         8      3172         8      3173
         8      3174         8      3175         8      3176         8      3177
         8      3178         8      3179         8      3180         8      3181
         8      3182         8      3183         8      3197         8      3198
         8      3199         8      3201         8      3202         8      3203
         8      3204         8      3205         8      3206         8      3207
         8      3208         8      3209         8      3230         8      3231
         8      3236         8      3237         8      3245         8      3246
         8      3251         8      3255         8      3261         8      3262
         8      3263         8      3264         8      3265         8      3266
         8      3267         8      3277         8      3278         8      3279
         8      3282         8      3283         8      3288         8      3289
         8      3337         8      3359         8      3362         8      3366
         8      3367         8      3368         8      3370         8      3371
         8      3372         8      3380         8      3381         8      3382
         8      3383         8      3384         8      3385         8      3449
         8      3450         8      3458         8      3459         8      3460
         8      3461         8      3464         8      3465         8      3466
         8      3467         8      3476         8      3477         8      3478
         8      3479         8      3480         8      3481         8      3482
         8      3483         8      3484         8      3494         8      3501
         8      3502         8      3503         8      3652         8      3662
         8      3664         8      3681         8      3689         8      3690
         8      3692         8      3693         8      3695         8      3696
         8      3697         8      3734         8      3735         8      3736
         8      3738         8      3743         8      3744         8      3797
         8      3848         8      3852         8      3853         8      3860
         8      3866         8      3869         8      3870         8      3871
         8      3874         8      3875         8      3876         8      3878
         8      3886         8      3887         8      3888         8      3893
         8      3894         8      3907         8      3908         8      3916
         8      3924         8      3936         8      3937         8      3938
         8      3939         8      3942         8      3944         8      3950
         8      3987         8      3997         8      4033         8      4034
         8      4041         8      4042         8      4081         8      4082
         8      4288         8      4289         8      4320         8      4347
         8      4348         8      4355         8      4371         8      4372
         8      4388         8      4409         8      4410         8      4411
         8      4412         8      4413         8      4414         8      4418
         8      4493         8      4517         8      4520         8      4542
         8      4599         8      4740         8      4742         8      4743
         8      4786         8      4787         8      4788         8      4790
         8      4791         8      4792         8      4793         8      4794
         8      4795         8      4796         8      4797         8      4798
         8      4802         8      4810         8      4811         8      4812
         8      4813         8      4814         8      4815         8      4816
         8      4817         8      4818         8      4819         8      4820
         8      4826         8      4827         8      4829         8      4830
         8      4831         8      4838         8      4839         8      4842
         8      4843         8      4844         8      4850         8      4851
         8      4855         8      4856         8      4857         8      4858
         8      4859         8      4860         8      4861         8      4873
         8      4875         8      4952         8      4953         8      4954
         8      4976         8      4998         8      4999         8      5000
         8      5601         8      5602         8      5603         8      5604
         8      5605         8      5606         8      5632         8      5633
         8      5691         8      5692         8      5693         8      5694
         8      5695         8      5696         8      5697         8      5698
         8      5699         8      5710         8      5714         8      5768
         8      5769         8      5770         8      5771         8      5772
         8      5773         8      5774         8      5775         8      5868
         8      5869         8      5871         8      5872         8      5873
         8      5874         8      5875         8      5876         8      5892
         8      5893         8      5896         8      5899         8      5908
         8      5909         8      5910         8      5921         8      5922
         8      5923         8      5924         8      5925         8      5926
         8      5927         8      5928         8      5929         8      5941
         8      5942         8      5943         8      5945         8      5946
         8      5947         8      5953         8      5954         8      5955
         8      5956         8      5957         8      5958         8      5959
         8      5960         8      5961         8      5962         8      5965
         8      5966         8      5967         8      5968         8      5969
         8      5970         8      5971         8      5972         8      6029
         8      6030         8      6031         8      6032         8      6033
         8      6035         8      6036         8      6037         8      6423
         8      6424         8      6425         8      6494         8      6495
         8      6496         8      6497         8      6498         8      6499
         8      6500         8      6501         8      6502         8      6503
         8      6504         8      6505         8      6507         8      6508
         8      6509         8      6510         8      6511         8      6525
         8      6526         8      6527         8      6847         8      6859
         8      6861         8      6864         8      6866         8      6881
         8      6915         8      6916         8      6917         8      6918
         8      6921         8      6922         8      6923         8      6925
         8      7046         8      7061         8      7065         8      7067
         8      7083         8      7085         8      7102         8      7106
         8      7107         8      7110         8      7112         8      7114
         8      7115         8      7143         8      7144         8      7145
         8      7146         8      7169         8      7200         8      7255
         8      7256         8      7270         8      7316         8      7343
         8      7344         8      7358         8      7409         8      7411
         8      7480         8      7481         8      7483         8      7494
         8      7495         8      7496         8      7497         8      7503
         8      7514         8      7516         8      7518
    -1
