ISO-10303-21;
HEADER;
FILE_DESCRIPTION(('STEP AP242'),
    '1');
FILE_NAME('Корпус 2',
    '',
    ('UNSPECIFIED'),
    ('UNSPECIFIED'),
    'C3D Converter',
    'C3D Toolkit',
    '');
FILE_SCHEMA(('AP242_MANAGED_MODEL_BASED_3D_ENGINEERING_MIM_LF { 1 0 10303 442 1 1 4 }'));
ENDSEC;

DATA;
#1=PRODUCT_DEFINITION('','UNSPECIFIED',#28,#31);
#2=SHAPE_DEFINITION_REPRESENTATION(#26,#3);
#3=SHAPE_REPRESENTATION('NONE',(#4),#8);
#4=AXIS2_PLACEMENT_3D('',#5,#6,#7);
#5=CARTESIAN_POINT('',(0.,0.,0.));
#6=DIRECTION('',(0.,0.,1.));
#7=DIRECTION('',(1.,0.,0.));
#8=(GEOMETRIC_REPRESENTATION_CONTEXT(3)GLOBAL_UNCERTAINTY_ASSIGNED_CONTEXT((#10))
GLOBAL_UNIT_ASSIGNED_CONTEXT((#9,#11,#12))REPRESENTATION_CONTEXT('NONE','NONE'));
#9=(LENGTH_UNIT()NAMED_UNIT(*)SI_UNIT(.MILLI.,.METRE.));
#10=UNCERTAINTY_MEASURE_WITH_UNIT(LENGTH_MEASURE(1.E-5),#9,'NONE','NONE');
#11=(NAMED_UNIT(*)PLANE_ANGLE_UNIT()SI_UNIT($,.RADIAN.));
#12=(NAMED_UNIT(*)SI_UNIT($,.STERADIAN.)SOLID_ANGLE_UNIT());
#13=MANIFOLD_SOLID_BREP('',#14);
#14=CLOSED_SHELL('',(#53,#54,#55,#56,#57,#58,#59,#60,#61,#62,#63,#64,#65,#66,#67,
#68,#69,#70,#71,#72,#73,#74,#75,#76,#77,#78,#79,#80,#81,#82,#83,#84,#85,#86,#87,
#88,#89,#90,#91,#92,#93,#94,#95,#96,#97,#98,#99,#100,#101,#102,#103,#104,#105,#106,
#107,#108,#109,#110,#111,#112,#113,#114,#115,#116,#117,#118,#119,#120,#121,#122,
#123,#124));
#15=COLOUR_RGB('',0.564705882352941,0.564705882352941,0.564705882352941);
#16=FILL_AREA_STYLE_COLOUR('',#15);
#17=FILL_AREA_STYLE($,(#16));
#18=SURFACE_STYLE_FILL_AREA(#17);
#19=SURFACE_SIDE_STYLE('',(#18));
#20=SURFACE_STYLE_USAGE(.BOTH.,#19);
#21=PRESENTATION_STYLE_ASSIGNMENT((#20));
#22=MECHANICAL_DESIGN_GEOMETRIC_PRESENTATION_REPRESENTATION('NONE',(#23),#8);
#23=STYLED_ITEM('',(#21),#13);
#24=ADVANCED_BREP_SHAPE_REPRESENTATION('NONE',(#13),#8);
#25=SHAPE_REPRESENTATION_RELATIONSHIP('','',#3,#24);
#26=PRODUCT_DEFINITION_SHAPE('NONE','NONE',#1);
#27=MECHANICAL_CONTEXT('NONE',#32,'mechanical');
#28=PRODUCT_DEFINITION_FORMATION_WITH_SPECIFIED_SOURCE('ANY','UNSPECIFIED',#29,.NOT_KNOWN.);
#29=PRODUCT('','\X2\0414043504420430043B044C\X0\','NONE',(#27));
#30=PRODUCT_RELATED_PRODUCT_CATEGORY('detail','',(#29));
#31=DESIGN_CONTEXT('detailed design',#32,'design');
#32=APPLICATION_CONTEXT('configuration controlled 3d designs of mechanical parts and assemblies');
#33=APPLICATION_PROTOCOL_DEFINITION('international standard','config_control_design',
1994,#32);
#34=CC_DESIGN_DATE_AND_TIME_ASSIGNMENT(#35,#39,(#1));
#35=DATE_AND_TIME(#36,#37);
#36=CALENDAR_DATE(0,1,1);
#37=LOCAL_TIME(0,0,0.,#38);
#38=COORDINATED_UNIVERSAL_TIME_OFFSET(0,0,.AHEAD.);
#39=DATE_TIME_ROLE('creation_date');
#40=CC_DESIGN_APPROVAL(#41,(#1));
#41=APPROVAL(#42,'UNSPECIFIED');
#42=APPROVAL_STATUS('not_yet_approved');
#43=APPROVAL_DATE_TIME(#44,#41);
#44=DATE_AND_TIME(#45,#46);
#45=CALENDAR_DATE(0,1,1);
#46=LOCAL_TIME(0,0,0.,#47);
#47=COORDINATED_UNIVERSAL_TIME_OFFSET(0,0,.AHEAD.);
#48=PERSON('UNSPECIFIED','gnomy','UNSPECIFIED',('UNSPECIFIED'),('UNSPECIFIED'),(
'UNSPECIFIED'));
#49=ORGANIZATION('UNSPECIFIED','UNSPECIFIED','UNSPECIFIED');
#50=PERSON_AND_ORGANIZATION(#48,#49);
#51=PERSON_AND_ORGANIZATION_ROLE('creator');
#52=CC_DESIGN_PERSON_AND_ORGANIZATION_ASSIGNMENT(#50,#51,(#28,#1));
#53=ADVANCED_FACE('',(#125,#127,#129,#131,#133),#135,.T.);
#54=ADVANCED_FACE('',(#140,#142,#144,#146,#148),#150,.T.);
#55=ADVANCED_FACE('',(#155,#157),#159,.F.);
#56=ADVANCED_FACE('',(#164,#166),#168,.F.);
#57=ADVANCED_FACE('',(#173,#175),#177,.F.);
#58=ADVANCED_FACE('',(#182,#184),#186,.F.);
#59=ADVANCED_FACE('',(#191,#193),#195,.F.);
#60=ADVANCED_FACE('',(#200,#202),#204,.F.);
#61=ADVANCED_FACE('',(#209,#211),#213,.F.);
#62=ADVANCED_FACE('',(#218,#220),#222,.F.);
#63=ADVANCED_FACE('',(#227),#229,.F.);
#64=ADVANCED_FACE('',(#234),#236,.F.);
#65=ADVANCED_FACE('',(#241,#243),#245,.T.);
#66=ADVANCED_FACE('',(#250,#252),#254,.F.);
#67=ADVANCED_FACE('',(#259,#261),#263,.F.);
#68=ADVANCED_FACE('',(#268,#270),#272,.T.);
#69=ADVANCED_FACE('',(#277),#279,.T.);
#70=ADVANCED_FACE('',(#284),#286,.T.);
#71=ADVANCED_FACE('',(#291),#293,.T.);
#72=ADVANCED_FACE('',(#298),#300,.T.);
#73=ADVANCED_FACE('',(#305),#307,.T.);
#74=ADVANCED_FACE('',(#312),#314,.T.);
#75=ADVANCED_FACE('',(#319),#321,.T.);
#76=ADVANCED_FACE('',(#326),#328,.T.);
#77=ADVANCED_FACE('',(#333,#335),#337,.T.);
#78=ADVANCED_FACE('',(#342),#344,.T.);
#79=ADVANCED_FACE('',(#349,#351,#353,#355,#357),#359,.T.);
#80=ADVANCED_FACE('',(#364,#366),#368,.T.);
#81=ADVANCED_FACE('',(#373),#375,.T.);
#82=ADVANCED_FACE('',(#380),#382,.T.);
#83=ADVANCED_FACE('',(#387),#389,.T.);
#84=ADVANCED_FACE('',(#394,#396,#398,#400,#402),#404,.T.);
#85=ADVANCED_FACE('',(#409,#411),#413,.T.);
#86=ADVANCED_FACE('',(#418),#420,.T.);
#87=ADVANCED_FACE('',(#425,#427),#429,.F.);
#88=ADVANCED_FACE('',(#434,#436),#438,.F.);
#89=ADVANCED_FACE('',(#443,#445),#447,.F.);
#90=ADVANCED_FACE('',(#452,#454,#456,#458,#460),#462,.T.);
#91=ADVANCED_FACE('',(#467),#469,.T.);
#92=ADVANCED_FACE('',(#474),#476,.F.);
#93=ADVANCED_FACE('',(#481),#483,.F.);
#94=ADVANCED_FACE('',(#488),#490,.F.);
#95=ADVANCED_FACE('',(#495),#497,.T.);
#96=ADVANCED_FACE('',(#502),#504,.F.);
#97=ADVANCED_FACE('',(#509,#511),#513,.T.);
#98=ADVANCED_FACE('',(#518,#520),#522,.T.);
#99=ADVANCED_FACE('',(#527,#529),#531,.T.);
#100=ADVANCED_FACE('',(#536,#538),#540,.T.);
#101=ADVANCED_FACE('',(#545,#547,#549,#551,#553,#555,#557,#559,#561),#563,.F.);
#102=ADVANCED_FACE('',(#568),#570,.T.);
#103=ADVANCED_FACE('',(#575),#577,.T.);
#104=ADVANCED_FACE('',(#582,#584),#586,.F.);
#105=ADVANCED_FACE('',(#591,#593),#595,.F.);
#106=ADVANCED_FACE('',(#600,#602),#604,.F.);
#107=ADVANCED_FACE('',(#609,#611),#613,.F.);
#108=ADVANCED_FACE('',(#618),#620,.T.);
#109=ADVANCED_FACE('',(#625,#627),#629,.F.);
#110=ADVANCED_FACE('',(#634,#636),#638,.F.);
#111=ADVANCED_FACE('',(#643,#645),#647,.F.);
#112=ADVANCED_FACE('',(#652,#654),#656,.F.);
#113=ADVANCED_FACE('',(#661,#663),#665,.T.);
#114=ADVANCED_FACE('',(#670,#672),#674,.T.);
#115=ADVANCED_FACE('',(#679,#681),#683,.T.);
#116=ADVANCED_FACE('',(#688,#690),#692,.T.);
#117=ADVANCED_FACE('',(#697,#699),#701,.F.);
#118=ADVANCED_FACE('',(#706,#708),#710,.F.);
#119=ADVANCED_FACE('',(#715,#717),#719,.F.);
#120=ADVANCED_FACE('',(#724,#726),#728,.F.);
#121=ADVANCED_FACE('',(#733),#735,.T.);
#122=ADVANCED_FACE('',(#740),#742,.T.);
#123=ADVANCED_FACE('',(#747),#749,.T.);
#124=ADVANCED_FACE('',(#754),#756,.T.);
#125=FACE_BOUND('',#126,.T.);
#126=EDGE_LOOP('',(#761,#762,#763,#764));
#127=FACE_BOUND('',#128,.T.);
#128=EDGE_LOOP('',(#765));
#129=FACE_BOUND('',#130,.T.);
#130=EDGE_LOOP('',(#766));
#131=FACE_BOUND('',#132,.T.);
#132=EDGE_LOOP('',(#767));
#133=FACE_BOUND('',#134,.T.);
#134=EDGE_LOOP('',(#768));
#135=PLANE('',#136);
#136=AXIS2_PLACEMENT_3D('',#137,#138,#139);
#137=CARTESIAN_POINT('',(0.,38.,2.32682891837997E-15));
#138=DIRECTION('',(0.,1.,6.12323399573677E-17));
#139=DIRECTION('',(6.12323399573677E-17,6.12323399573677E-17,-1.));
#140=FACE_BOUND('',#141,.T.);
#141=EDGE_LOOP('',(#769,#770,#771,#772));
#142=FACE_BOUND('',#143,.T.);
#143=EDGE_LOOP('',(#773));
#144=FACE_BOUND('',#145,.T.);
#145=EDGE_LOOP('',(#774));
#146=FACE_BOUND('',#147,.T.);
#147=EDGE_LOOP('',(#775));
#148=FACE_BOUND('',#149,.T.);
#149=EDGE_LOOP('',(#776));
#150=PLANE('',#151);
#151=AXIS2_PLACEMENT_3D('',#152,#153,#154);
#152=CARTESIAN_POINT('',(0.,38.,2.32682891837997E-15));
#153=DIRECTION('',(0.,1.,6.12323399573677E-17));
#154=DIRECTION('',(6.12323399573677E-17,6.12323399573677E-17,-1.));
#155=FACE_OUTER_BOUND('',#156,.T.);
#156=EDGE_LOOP('',(#777));
#157=FACE_OUTER_BOUND('',#158,.T.);
#158=EDGE_LOOP('',(#778));
#159=CYLINDRICAL_SURFACE('',#160,1.4);
#160=AXIS2_PLACEMENT_3D('',#161,#162,#163);
#161=CARTESIAN_POINT('',(87.5,30.,-48.5));
#162=DIRECTION('',(0.,1.,6.12323399573677E-17));
#163=DIRECTION('',(6.12323399573676E-17,6.12323399573677E-17,-1.));
#164=FACE_OUTER_BOUND('',#165,.T.);
#165=EDGE_LOOP('',(#779));
#166=FACE_OUTER_BOUND('',#167,.T.);
#167=EDGE_LOOP('',(#780));
#168=CYLINDRICAL_SURFACE('',#169,1.4);
#169=AXIS2_PLACEMENT_3D('',#170,#171,#172);
#170=CARTESIAN_POINT('',(30.,30.,-48.5));
#171=DIRECTION('',(0.,1.,6.12323399573677E-17));
#172=DIRECTION('',(6.12323399573676E-17,6.12323399573677E-17,-1.));
#173=FACE_OUTER_BOUND('',#174,.T.);
#174=EDGE_LOOP('',(#781));
#175=FACE_OUTER_BOUND('',#176,.T.);
#176=EDGE_LOOP('',(#782));
#177=CYLINDRICAL_SURFACE('',#178,1.4);
#178=AXIS2_PLACEMENT_3D('',#179,#180,#181);
#179=CARTESIAN_POINT('',(-30.,30.,-48.5));
#180=DIRECTION('',(0.,1.,6.12323399573677E-17));
#181=DIRECTION('',(6.12323399573676E-17,6.12323399573677E-17,-1.));
#182=FACE_OUTER_BOUND('',#183,.T.);
#183=EDGE_LOOP('',(#783));
#184=FACE_OUTER_BOUND('',#185,.T.);
#185=EDGE_LOOP('',(#784));
#186=CYLINDRICAL_SURFACE('',#187,1.4);
#187=AXIS2_PLACEMENT_3D('',#188,#189,#190);
#188=CARTESIAN_POINT('',(-87.5,30.,-48.5));
#189=DIRECTION('',(0.,1.,6.12323399573677E-17));
#190=DIRECTION('',(6.12323399573676E-17,6.12323399573677E-17,-1.));
#191=FACE_OUTER_BOUND('',#192,.T.);
#192=EDGE_LOOP('',(#785));
#193=FACE_OUTER_BOUND('',#194,.T.);
#194=EDGE_LOOP('',(#786));
#195=CYLINDRICAL_SURFACE('',#196,1.4);
#196=AXIS2_PLACEMENT_3D('',#197,#198,#199);
#197=CARTESIAN_POINT('',(87.5,30.,48.5));
#198=DIRECTION('',(0.,1.,6.12323399573677E-17));
#199=DIRECTION('',(6.12323399573676E-17,6.12323399573677E-17,-1.));
#200=FACE_OUTER_BOUND('',#201,.T.);
#201=EDGE_LOOP('',(#787));
#202=FACE_OUTER_BOUND('',#203,.T.);
#203=EDGE_LOOP('',(#788));
#204=CYLINDRICAL_SURFACE('',#205,1.4);
#205=AXIS2_PLACEMENT_3D('',#206,#207,#208);
#206=CARTESIAN_POINT('',(30.,30.,48.5));
#207=DIRECTION('',(0.,1.,6.12323399573677E-17));
#208=DIRECTION('',(6.12323399573676E-17,6.12323399573677E-17,-1.));
#209=FACE_OUTER_BOUND('',#210,.T.);
#210=EDGE_LOOP('',(#789));
#211=FACE_OUTER_BOUND('',#212,.T.);
#212=EDGE_LOOP('',(#790));
#213=CYLINDRICAL_SURFACE('',#214,1.4);
#214=AXIS2_PLACEMENT_3D('',#215,#216,#217);
#215=CARTESIAN_POINT('',(-30.,30.,48.5));
#216=DIRECTION('',(0.,1.,6.12323399573677E-17));
#217=DIRECTION('',(6.12323399573676E-17,6.12323399573677E-17,-1.));
#218=FACE_OUTER_BOUND('',#219,.T.);
#219=EDGE_LOOP('',(#791));
#220=FACE_OUTER_BOUND('',#221,.T.);
#221=EDGE_LOOP('',(#792));
#222=CYLINDRICAL_SURFACE('',#223,1.4);
#223=AXIS2_PLACEMENT_3D('',#224,#225,#226);
#224=CARTESIAN_POINT('',(-87.5,30.,48.5));
#225=DIRECTION('',(0.,1.,6.12323399573677E-17));
#226=DIRECTION('',(6.12323399573676E-17,6.12323399573677E-17,-1.));
#227=FACE_BOUND('',#228,.T.);
#228=EDGE_LOOP('',(#793,#794,#795,#796,#797,#798,#799,#800));
#229=PLANE('',#230);
#230=AXIS2_PLACEMENT_3D('',#231,#232,#233);
#231=CARTESIAN_POINT('',(100.,5.,-45.));
#232=DIRECTION('',(7.105427357601E-17,0.,-1.));
#233=DIRECTION('',(-1.,0.,-7.105427357601E-17));
#234=FACE_BOUND('',#235,.T.);
#235=EDGE_LOOP('',(#801,#802,#803,#804,#805,#806,#807,#808));
#236=PLANE('',#237);
#237=AXIS2_PLACEMENT_3D('',#238,#239,#240);
#238=CARTESIAN_POINT('',(100.,5.,45.));
#239=DIRECTION('',(1.,0.,0.));
#240=DIRECTION('',(0.,5.9211894646675E-17,-1.));
#241=FACE_BOUND('',#242,.T.);
#242=EDGE_LOOP('',(#809,#810,#811,#812,#813,#814,#815,#816));
#243=FACE_BOUND('',#244,.T.);
#244=EDGE_LOOP('',(#817));
#245=PLANE('',#246);
#246=AXIS2_PLACEMENT_3D('',#247,#248,#249);
#247=CARTESIAN_POINT('',(105.,5.,-52.));
#248=DIRECTION('',(6.76707367390572E-17,0.,-1.));
#249=DIRECTION('',(-1.,0.,-6.76707367390572E-17));
#250=FACE_BOUND('',#251,.T.);
#251=EDGE_LOOP('',(#818,#819,#820,#821,#822,#823,#824,#825));
#252=FACE_BOUND('',#253,.T.);
#253=EDGE_LOOP('',(#826));
#254=PLANE('',#255);
#255=AXIS2_PLACEMENT_3D('',#256,#257,#258);
#256=CARTESIAN_POINT('',(-100.,5.,-45.));
#257=DIRECTION('',(-1.,0.,0.));
#258=DIRECTION('',(0.,-5.9211894646675E-17,1.));
#259=FACE_BOUND('',#260,.T.);
#260=EDGE_LOOP('',(#827,#828,#829,#830,#831,#832,#833,#834));
#261=FACE_BOUND('',#262,.T.);
#262=EDGE_LOOP('',(#835));
#263=PLANE('',#264);
#264=AXIS2_PLACEMENT_3D('',#265,#266,#267);
#265=CARTESIAN_POINT('',(-100.,5.,45.));
#266=DIRECTION('',(-7.105427357601E-17,0.,1.));
#267=DIRECTION('',(1.,0.,7.105427357601E-17));
#268=FACE_BOUND('',#269,.T.);
#269=EDGE_LOOP('',(#836,#837,#838,#839,#840,#841,#842,#843));
#270=FACE_BOUND('',#271,.T.);
#271=EDGE_LOOP('',(#844));
#272=PLANE('',#273);
#273=AXIS2_PLACEMENT_3D('',#274,#275,#276);
#274=CARTESIAN_POINT('',(-105.,5.,52.));
#275=DIRECTION('',(-6.76707367390572E-17,0.,1.));
#276=DIRECTION('',(1.,0.,6.76707367390572E-17));
#277=FACE_BOUND('',#278,.T.);
#278=EDGE_LOOP('',(#845));
#279=PLANE('',#280);
#280=AXIS2_PLACEMENT_3D('',#281,#282,#283);
#281=CARTESIAN_POINT('',(0.,30.,1.83697019872103E-15));
#282=DIRECTION('',(0.,1.,6.12323399573677E-17));
#283=DIRECTION('',(6.12323399573677E-17,6.12323399573677E-17,-1.));
#284=FACE_BOUND('',#285,.T.);
#285=EDGE_LOOP('',(#846));
#286=PLANE('',#287);
#287=AXIS2_PLACEMENT_3D('',#288,#289,#290);
#288=CARTESIAN_POINT('',(0.,30.,1.83697019872103E-15));
#289=DIRECTION('',(0.,1.,6.12323399573677E-17));
#290=DIRECTION('',(6.12323399573677E-17,6.12323399573677E-17,-1.));
#291=FACE_BOUND('',#292,.T.);
#292=EDGE_LOOP('',(#847));
#293=PLANE('',#294);
#294=AXIS2_PLACEMENT_3D('',#295,#296,#297);
#295=CARTESIAN_POINT('',(0.,30.,1.83697019872103E-15));
#296=DIRECTION('',(0.,1.,6.12323399573677E-17));
#297=DIRECTION('',(6.12323399573677E-17,6.12323399573677E-17,-1.));
#298=FACE_BOUND('',#299,.T.);
#299=EDGE_LOOP('',(#848));
#300=PLANE('',#301);
#301=AXIS2_PLACEMENT_3D('',#302,#303,#304);
#302=CARTESIAN_POINT('',(0.,30.,1.83697019872103E-15));
#303=DIRECTION('',(0.,1.,6.12323399573677E-17));
#304=DIRECTION('',(6.12323399573677E-17,6.12323399573677E-17,-1.));
#305=FACE_BOUND('',#306,.T.);
#306=EDGE_LOOP('',(#849));
#307=PLANE('',#308);
#308=AXIS2_PLACEMENT_3D('',#309,#310,#311);
#309=CARTESIAN_POINT('',(0.,30.,1.83697019872103E-15));
#310=DIRECTION('',(0.,1.,6.12323399573677E-17));
#311=DIRECTION('',(6.12323399573677E-17,6.12323399573677E-17,-1.));
#312=FACE_BOUND('',#313,.T.);
#313=EDGE_LOOP('',(#850));
#314=PLANE('',#315);
#315=AXIS2_PLACEMENT_3D('',#316,#317,#318);
#316=CARTESIAN_POINT('',(0.,30.,1.83697019872103E-15));
#317=DIRECTION('',(0.,1.,6.12323399573677E-17));
#318=DIRECTION('',(6.12323399573677E-17,6.12323399573677E-17,-1.));
#319=FACE_BOUND('',#320,.T.);
#320=EDGE_LOOP('',(#851));
#321=PLANE('',#322);
#322=AXIS2_PLACEMENT_3D('',#323,#324,#325);
#323=CARTESIAN_POINT('',(0.,30.,1.83697019872103E-15));
#324=DIRECTION('',(0.,1.,6.12323399573677E-17));
#325=DIRECTION('',(6.12323399573677E-17,6.12323399573677E-17,-1.));
#326=FACE_BOUND('',#327,.T.);
#327=EDGE_LOOP('',(#852));
#328=PLANE('',#329);
#329=AXIS2_PLACEMENT_3D('',#330,#331,#332);
#330=CARTESIAN_POINT('',(0.,30.,1.83697019872103E-15));
#331=DIRECTION('',(0.,1.,6.12323399573677E-17));
#332=DIRECTION('',(6.12323399573677E-17,6.12323399573677E-17,-1.));
#333=FACE_BOUND('',#334,.T.);
#334=EDGE_LOOP('',(#853,#854,#855,#856));
#335=FACE_BOUND('',#336,.T.);
#336=EDGE_LOOP('',(#857,#858,#859,#860,#861,#862));
#337=PLANE('',#338);
#338=AXIS2_PLACEMENT_3D('',#339,#340,#341);
#339=CARTESIAN_POINT('',(-1.8271672435233E-14,5.,50.));
#340=DIRECTION('',(1.,0.,2.13332894331014E-16));
#341=DIRECTION('',(2.13332894331014E-16,5.32907051820075E-17,-1.));
#342=FACE_BOUND('',#343,.T.);
#343=EDGE_LOOP('',(#863,#864,#865,#866));
#344=PLANE('',#345);
#345=AXIS2_PLACEMENT_3D('',#346,#347,#348);
#346=CARTESIAN_POINT('',(0.,5.,3.06161699786838E-16));
#347=DIRECTION('',(0.,1.,6.12323399573677E-17));
#348=DIRECTION('',(6.12323399573677E-17,6.12323399573677E-17,-1.));
#349=FACE_BOUND('',#350,.T.);
#350=EDGE_LOOP('',(#867,#868,#869,#870));
#351=FACE_BOUND('',#352,.T.);
#352=EDGE_LOOP('',(#871));
#353=FACE_BOUND('',#354,.T.);
#354=EDGE_LOOP('',(#872));
#355=FACE_BOUND('',#356,.T.);
#356=EDGE_LOOP('',(#873));
#357=FACE_BOUND('',#358,.T.);
#358=EDGE_LOOP('',(#874));
#359=PLANE('',#360);
#360=AXIS2_PLACEMENT_3D('',#361,#362,#363);
#361=CARTESIAN_POINT('',(0.,5.,3.06161699786838E-16));
#362=DIRECTION('',(0.,1.,6.12323399573677E-17));
#363=DIRECTION('',(6.12323399573677E-17,6.12323399573677E-17,-1.));
#364=FACE_BOUND('',#365,.T.);
#365=EDGE_LOOP('',(#875,#876,#877,#878));
#366=FACE_BOUND('',#367,.T.);
#367=EDGE_LOOP('',(#879,#880,#881,#882,#883,#884));
#368=PLANE('',#369);
#369=AXIS2_PLACEMENT_3D('',#370,#371,#372);
#370=CARTESIAN_POINT('',(-2.,5.,-50.));
#371=DIRECTION('',(-1.,0.,-6.21724893790088E-17));
#372=DIRECTION('',(-6.21724893790088E-17,-5.32907051820075E-17,1.));
#373=FACE_BOUND('',#374,.T.);
#374=EDGE_LOOP('',(#885,#886,#887,#888));
#375=PLANE('',#376);
#376=AXIS2_PLACEMENT_3D('',#377,#378,#379);
#377=CARTESIAN_POINT('',(0.,30.,1.83697019872103E-15));
#378=DIRECTION('',(0.,1.,6.12323399573677E-17));
#379=DIRECTION('',(6.12323399573677E-17,6.12323399573677E-17,-1.));
#380=FACE_BOUND('',#381,.T.);
#381=EDGE_LOOP('',(#889,#890,#891,#892));
#382=PLANE('',#383);
#383=AXIS2_PLACEMENT_3D('',#384,#385,#386);
#384=CARTESIAN_POINT('',(0.,40.,2.44929359829471E-15));
#385=DIRECTION('',(0.,1.,6.12323399573677E-17));
#386=DIRECTION('',(6.12323399573677E-17,6.12323399573677E-17,-1.));
#387=FACE_BOUND('',#388,.T.);
#388=EDGE_LOOP('',(#893,#894,#895,#896,#897,#898,#899,#900));
#389=PLANE('',#390);
#390=AXIS2_PLACEMENT_3D('',#391,#392,#393);
#391=CARTESIAN_POINT('',(105.,-3.67394039744206E-15,60.));
#392=DIRECTION('',(1.,0.,0.));
#393=DIRECTION('',(0.,6.12323399573677E-17,-1.));
#394=FACE_BOUND('',#395,.T.);
#395=EDGE_LOOP('',(#901,#902,#903,#904));
#396=FACE_BOUND('',#397,.T.);
#397=EDGE_LOOP('',(#905));
#398=FACE_BOUND('',#399,.T.);
#399=EDGE_LOOP('',(#906));
#400=FACE_BOUND('',#401,.T.);
#401=EDGE_LOOP('',(#907));
#402=FACE_BOUND('',#403,.T.);
#403=EDGE_LOOP('',(#908));
#404=PLANE('',#405);
#405=AXIS2_PLACEMENT_3D('',#406,#407,#408);
#406=CARTESIAN_POINT('',(0.,5.,3.06161699786838E-16));
#407=DIRECTION('',(0.,1.,6.12323399573677E-17));
#408=DIRECTION('',(6.12323399573677E-17,6.12323399573677E-17,-1.));
#409=FACE_BOUND('',#410,.T.);
#410=EDGE_LOOP('',(#909,#910,#911,#912,#913,#914,#915,#916));
#411=FACE_BOUND('',#412,.T.);
#412=EDGE_LOOP('',(#917));
#413=PLANE('',#414);
#414=AXIS2_PLACEMENT_3D('',#415,#416,#417);
#415=CARTESIAN_POINT('',(-105.,3.67394039744206E-15,-60.));
#416=DIRECTION('',(-1.,0.,0.));
#417=DIRECTION('',(0.,-6.12323399573677E-17,1.));
#418=FACE_BOUND('',#419,.T.);
#419=EDGE_LOOP('',(#918,#919,#920,#921));
#420=PLANE('',#421);
#421=AXIS2_PLACEMENT_3D('',#422,#423,#424);
#422=CARTESIAN_POINT('',(0.,40.,2.44929359829471E-15));
#423=DIRECTION('',(0.,1.,6.12323399573677E-17));
#424=DIRECTION('',(6.12323399573677E-17,6.12323399573677E-17,-1.));
#425=FACE_OUTER_BOUND('',#426,.T.);
#426=EDGE_LOOP('',(#922));
#427=FACE_OUTER_BOUND('',#428,.T.);
#428=EDGE_LOOP('',(#923));
#429=CYLINDRICAL_SURFACE('',#430,11.);
#430=AXIS2_PLACEMENT_3D('',#431,#432,#433);
#431=CARTESIAN_POINT('',(51.4785605315752,24.9149445136642,-50.));
#432=DIRECTION('',(6.76707367390572E-17,0.,-1.));
#433=DIRECTION('',(-1.,0.,-6.76707367390572E-17));
#434=FACE_OUTER_BOUND('',#435,.T.);
#435=EDGE_LOOP('',(#924));
#436=FACE_OUTER_BOUND('',#437,.T.);
#437=EDGE_LOOP('',(#925));
#438=CYLINDRICAL_SURFACE('',#439,11.5);
#439=AXIS2_PLACEMENT_3D('',#440,#441,#442);
#440=CARTESIAN_POINT('',(-100.,22.5,-20.));
#441=DIRECTION('',(-1.,0.,0.));
#442=DIRECTION('',(0.,-1.,-6.12323399573677E-17));
#443=FACE_OUTER_BOUND('',#444,.T.);
#444=EDGE_LOOP('',(#926));
#445=FACE_OUTER_BOUND('',#446,.T.);
#446=EDGE_LOOP('',(#927));
#447=CYLINDRICAL_SURFACE('',#448,5.5);
#448=AXIS2_PLACEMENT_3D('',#449,#450,#451);
#449=CARTESIAN_POINT('',(12.,20.,44.));
#450=DIRECTION('',(-6.76707367390572E-17,0.,1.));
#451=DIRECTION('',(1.,0.,6.76707367390572E-17));
#452=FACE_BOUND('',#453,.T.);
#453=EDGE_LOOP('',(#928,#929,#930,#931));
#454=FACE_BOUND('',#455,.T.);
#455=EDGE_LOOP('',(#932));
#456=FACE_BOUND('',#457,.T.);
#457=EDGE_LOOP('',(#933));
#458=FACE_BOUND('',#459,.T.);
#459=EDGE_LOOP('',(#934));
#460=FACE_BOUND('',#461,.T.);
#461=EDGE_LOOP('',(#935));
#462=PLANE('',#463);
#463=AXIS2_PLACEMENT_3D('',#464,#465,#466);
#464=CARTESIAN_POINT('',(0.,5.,3.06161699786838E-16));
#465=DIRECTION('',(0.,1.,6.12323399573677E-17));
#466=DIRECTION('',(6.12323399573677E-17,6.12323399573677E-17,-1.));
#467=FACE_BOUND('',#468,.T.);
#468=EDGE_LOOP('',(#936,#937,#938,#939));
#469=PLANE('',#470);
#470=AXIS2_PLACEMENT_3D('',#471,#472,#473);
#471=CARTESIAN_POINT('',(-14.,17.,-39.));
#472=DIRECTION('',(0.,-0.707106781186547,0.707106781186548));
#473=DIRECTION('',(1.,0.,0.));
#474=FACE_BOUND('',#475,.T.);
#475=EDGE_LOOP('',(#940,#941,#942,#943));
#476=PLANE('',#477);
#477=AXIS2_PLACEMENT_3D('',#478,#479,#480);
#478=CARTESIAN_POINT('',(-2.,8.,-39.));
#479=DIRECTION('',(0.,0.,-1.));
#480=DIRECTION('',(0.,1.,0.));
#481=FACE_BOUND('',#482,.T.);
#482=EDGE_LOOP('',(#944,#945,#946,#947));
#483=PLANE('',#484);
#484=AXIS2_PLACEMENT_3D('',#485,#486,#487);
#485=CARTESIAN_POINT('',(-2.,8.,-21.));
#486=DIRECTION('',(0.,-1.,1.97372982155583E-16));
#487=DIRECTION('',(2.09708793540307E-16,-1.97372982155583E-16,-1.));
#488=FACE_BOUND('',#489,.T.);
#489=EDGE_LOOP('',(#948,#949,#950,#951));
#490=PLANE('',#491);
#491=AXIS2_PLACEMENT_3D('',#492,#493,#494);
#492=CARTESIAN_POINT('',(-2.,20.,-21.));
#493=DIRECTION('',(0.,2.96059473233375E-16,1.));
#494=DIRECTION('',(0.,-1.,2.96059473233375E-16));
#495=FACE_BOUND('',#496,.T.);
#496=EDGE_LOOP('',(#952,#953,#954,#955));
#497=PLANE('',#498);
#498=AXIS2_PLACEMENT_3D('',#499,#500,#501);
#499=CARTESIAN_POINT('',(-14.,20.,-24.));
#500=DIRECTION('',(1.9324214876108E-16,-0.707106781186549,-0.707106781186546));
#501=DIRECTION('',(1.,0.,2.73285667600038E-16));
#502=FACE_BOUND('',#503,.T.);
#503=EDGE_LOOP('',(#956,#957,#958,#959));
#504=PLANE('',#505);
#505=AXIS2_PLACEMENT_3D('',#506,#507,#508);
#506=CARTESIAN_POINT('',(-2.,20.,-39.));
#507=DIRECTION('',(0.,1.,0.));
#508=DIRECTION('',(-2.09708793540307E-16,0.,1.));
#509=FACE_OUTER_BOUND('',#510,.T.);
#510=EDGE_LOOP('',(#960));
#511=FACE_OUTER_BOUND('',#512,.T.);
#512=EDGE_LOOP('',(#961));
#513=CYLINDRICAL_SURFACE('',#514,4.);
#514=AXIS2_PLACEMENT_3D('',#515,#516,#517);
#515=CARTESIAN_POINT('',(-86.75,5.,-28.));
#516=DIRECTION('',(0.,1.,6.12323399573677E-17));
#517=DIRECTION('',(6.12323399573677E-17,6.12323399573677E-17,-1.));
#518=FACE_OUTER_BOUND('',#519,.T.);
#519=EDGE_LOOP('',(#962));
#520=FACE_OUTER_BOUND('',#521,.T.);
#521=EDGE_LOOP('',(#963));
#522=CYLINDRICAL_SURFACE('',#523,4.);
#523=AXIS2_PLACEMENT_3D('',#524,#525,#526);
#524=CARTESIAN_POINT('',(-17.25,5.,-28.));
#525=DIRECTION('',(0.,1.,6.12323399573677E-17));
#526=DIRECTION('',(6.12323399573677E-17,6.12323399573677E-17,-1.));
#527=FACE_OUTER_BOUND('',#528,.T.);
#528=EDGE_LOOP('',(#964));
#529=FACE_OUTER_BOUND('',#530,.T.);
#530=EDGE_LOOP('',(#965));
#531=CYLINDRICAL_SURFACE('',#532,4.);
#532=AXIS2_PLACEMENT_3D('',#533,#534,#535);
#533=CARTESIAN_POINT('',(-17.25,5.,33.75));
#534=DIRECTION('',(0.,1.,6.12323399573677E-17));
#535=DIRECTION('',(6.12323399573677E-17,6.12323399573677E-17,-1.));
#536=FACE_OUTER_BOUND('',#537,.T.);
#537=EDGE_LOOP('',(#966));
#538=FACE_OUTER_BOUND('',#539,.T.);
#539=EDGE_LOOP('',(#967));
#540=CYLINDRICAL_SURFACE('',#541,4.);
#541=AXIS2_PLACEMENT_3D('',#542,#543,#544);
#542=CARTESIAN_POINT('',(-86.75,5.,33.75));
#543=DIRECTION('',(0.,1.,6.12323399573677E-17));
#544=DIRECTION('',(6.12323399573677E-17,6.12323399573677E-17,-1.));
#545=FACE_BOUND('',#546,.T.);
#546=EDGE_LOOP('',(#968,#969,#970,#971));
#547=FACE_BOUND('',#548,.T.);
#548=EDGE_LOOP('',(#972));
#549=FACE_BOUND('',#550,.T.);
#550=EDGE_LOOP('',(#973));
#551=FACE_BOUND('',#552,.T.);
#552=EDGE_LOOP('',(#974));
#553=FACE_BOUND('',#554,.T.);
#554=EDGE_LOOP('',(#975));
#555=FACE_BOUND('',#556,.T.);
#556=EDGE_LOOP('',(#976));
#557=FACE_BOUND('',#558,.T.);
#558=EDGE_LOOP('',(#977));
#559=FACE_BOUND('',#560,.T.);
#560=EDGE_LOOP('',(#978));
#561=FACE_BOUND('',#562,.T.);
#562=EDGE_LOOP('',(#979));
#563=PLANE('',#564);
#564=AXIS2_PLACEMENT_3D('',#565,#566,#567);
#565=CARTESIAN_POINT('',(0.,0.,0.));
#566=DIRECTION('',(0.,1.,6.12323399573677E-17));
#567=DIRECTION('',(6.12323399573677E-17,6.12323399573677E-17,-1.));
#568=FACE_BOUND('',#569,.T.);
#569=EDGE_LOOP('',(#980,#981,#982,#983));
#570=PLANE('',#571);
#571=AXIS2_PLACEMENT_3D('',#572,#573,#574);
#572=CARTESIAN_POINT('',(105.,3.67394039744206E-15,-60.));
#573=DIRECTION('',(6.76707367390572E-17,0.,-1.));
#574=DIRECTION('',(-1.,0.,-6.76707367390572E-17));
#575=FACE_BOUND('',#576,.T.);
#576=EDGE_LOOP('',(#984,#985,#986,#987));
#577=PLANE('',#578);
#578=AXIS2_PLACEMENT_3D('',#579,#580,#581);
#579=CARTESIAN_POINT('',(-105.,-3.67394039744206E-15,60.));
#580=DIRECTION('',(-6.76707367390572E-17,0.,1.));
#581=DIRECTION('',(1.,0.,6.76707367390572E-17));
#582=FACE_OUTER_BOUND('',#583,.T.);
#583=EDGE_LOOP('',(#988));
#584=FACE_OUTER_BOUND('',#585,.T.);
#585=EDGE_LOOP('',(#989));
#586=CYLINDRICAL_SURFACE('',#587,1.4);
#587=AXIS2_PLACEMENT_3D('',#588,#589,#590);
#588=CARTESIAN_POINT('',(-87.5,-1.23702641187912E-16,-56.));
#589=DIRECTION('',(0.,1.,6.12323399573677E-17));
#590=DIRECTION('',(-6.12323399573676E-17,-6.12323399573677E-17,1.));
#591=FACE_OUTER_BOUND('',#592,.T.);
#592=EDGE_LOOP('',(#990));
#593=FACE_OUTER_BOUND('',#594,.T.);
#594=EDGE_LOOP('',(#991));
#595=CYLINDRICAL_SURFACE('',#596,1.4);
#596=AXIS2_PLACEMENT_3D('',#597,#598,#599);
#597=CARTESIAN_POINT('',(-30.,-1.23702641187912E-16,-56.));
#598=DIRECTION('',(0.,1.,6.12323399573677E-17));
#599=DIRECTION('',(-6.12323399573676E-17,-6.12323399573677E-17,1.));
#600=FACE_OUTER_BOUND('',#601,.T.);
#601=EDGE_LOOP('',(#992));
#602=FACE_OUTER_BOUND('',#603,.T.);
#603=EDGE_LOOP('',(#993));
#604=CYLINDRICAL_SURFACE('',#605,1.4);
#605=AXIS2_PLACEMENT_3D('',#606,#607,#608);
#606=CARTESIAN_POINT('',(30.,-1.23702641187912E-16,-56.));
#607=DIRECTION('',(0.,1.,6.12323399573677E-17));
#608=DIRECTION('',(-6.12323399573676E-17,-6.12323399573677E-17,1.));
#609=FACE_OUTER_BOUND('',#610,.T.);
#610=EDGE_LOOP('',(#994));
#611=FACE_OUTER_BOUND('',#612,.T.);
#612=EDGE_LOOP('',(#995));
#613=CYLINDRICAL_SURFACE('',#614,1.4);
#614=AXIS2_PLACEMENT_3D('',#615,#616,#617);
#615=CARTESIAN_POINT('',(87.5,-1.23702641187912E-16,-56.));
#616=DIRECTION('',(0.,1.,6.12323399573677E-17));
#617=DIRECTION('',(-6.12323399573676E-17,-6.12323399573677E-17,1.));
#618=FACE_BOUND('',#619,.T.);
#619=EDGE_LOOP('',(#996));
#620=PLANE('',#621);
#621=AXIS2_PLACEMENT_3D('',#622,#623,#624);
#622=CARTESIAN_POINT('',(-6.76707367390572E-16,0.,-50.));
#623=DIRECTION('',(6.76707367390572E-17,0.,-1.));
#624=DIRECTION('',(-1.,0.,-6.76707367390572E-17));
#625=FACE_OUTER_BOUND('',#626,.T.);
#626=EDGE_LOOP('',(#997));
#627=FACE_OUTER_BOUND('',#628,.T.);
#628=EDGE_LOOP('',(#998));
#629=CYLINDRICAL_SURFACE('',#630,1.4);
#630=AXIS2_PLACEMENT_3D('',#631,#632,#633);
#631=CARTESIAN_POINT('',(-87.5,-6.98172471641309E-15,56.));
#632=DIRECTION('',(0.,1.,6.12323399573677E-17));
#633=DIRECTION('',(6.12323399573676E-17,6.12323399573677E-17,-1.));
#634=FACE_OUTER_BOUND('',#635,.T.);
#635=EDGE_LOOP('',(#999));
#636=FACE_OUTER_BOUND('',#637,.T.);
#637=EDGE_LOOP('',(#1000));
#638=CYLINDRICAL_SURFACE('',#639,1.4);
#639=AXIS2_PLACEMENT_3D('',#640,#641,#642);
#640=CARTESIAN_POINT('',(-30.,-6.98172471641309E-15,56.));
#641=DIRECTION('',(0.,1.,6.12323399573677E-17));
#642=DIRECTION('',(6.12323399573676E-17,6.12323399573677E-17,-1.));
#643=FACE_OUTER_BOUND('',#644,.T.);
#644=EDGE_LOOP('',(#1001));
#645=FACE_OUTER_BOUND('',#646,.T.);
#646=EDGE_LOOP('',(#1002));
#647=CYLINDRICAL_SURFACE('',#648,1.4);
#648=AXIS2_PLACEMENT_3D('',#649,#650,#651);
#649=CARTESIAN_POINT('',(30.,-6.98172471641309E-15,56.));
#650=DIRECTION('',(0.,1.,6.12323399573677E-17));
#651=DIRECTION('',(6.12323399573676E-17,6.12323399573677E-17,-1.));
#652=FACE_OUTER_BOUND('',#653,.T.);
#653=EDGE_LOOP('',(#1003));
#654=FACE_OUTER_BOUND('',#655,.T.);
#655=EDGE_LOOP('',(#1004));
#656=CYLINDRICAL_SURFACE('',#657,1.4);
#657=AXIS2_PLACEMENT_3D('',#658,#659,#660);
#658=CARTESIAN_POINT('',(87.5,-6.98172471641309E-15,56.));
#659=DIRECTION('',(0.,1.,6.12323399573677E-17));
#660=DIRECTION('',(6.12323399573676E-17,6.12323399573677E-17,-1.));
#661=FACE_BOUND('',#662,.T.);
#662=EDGE_LOOP('',(#1005));
#663=FACE_BOUND('',#664,.T.);
#664=EDGE_LOOP('',(#1006));
#665=PLANE('',#666);
#666=AXIS2_PLACEMENT_3D('',#667,#668,#669);
#667=CARTESIAN_POINT('',(0.,11.,6.73555739531044E-16));
#668=DIRECTION('',(0.,1.,6.12323399573677E-17));
#669=DIRECTION('',(6.12323399573677E-17,6.12323399573677E-17,-1.));
#670=FACE_BOUND('',#671,.T.);
#671=EDGE_LOOP('',(#1007));
#672=FACE_BOUND('',#673,.T.);
#673=EDGE_LOOP('',(#1008));
#674=PLANE('',#675);
#675=AXIS2_PLACEMENT_3D('',#676,#677,#678);
#676=CARTESIAN_POINT('',(0.,11.,6.73555739531044E-16));
#677=DIRECTION('',(0.,1.,6.12323399573677E-17));
#678=DIRECTION('',(6.12323399573677E-17,6.12323399573677E-17,-1.));
#679=FACE_BOUND('',#680,.T.);
#680=EDGE_LOOP('',(#1009));
#681=FACE_BOUND('',#682,.T.);
#682=EDGE_LOOP('',(#1010));
#683=PLANE('',#684);
#684=AXIS2_PLACEMENT_3D('',#685,#686,#687);
#685=CARTESIAN_POINT('',(0.,11.,6.73555739531044E-16));
#686=DIRECTION('',(0.,1.,6.12323399573677E-17));
#687=DIRECTION('',(6.12323399573677E-17,6.12323399573677E-17,-1.));
#688=FACE_BOUND('',#689,.T.);
#689=EDGE_LOOP('',(#1011));
#690=FACE_BOUND('',#691,.T.);
#691=EDGE_LOOP('',(#1012));
#692=PLANE('',#693);
#693=AXIS2_PLACEMENT_3D('',#694,#695,#696);
#694=CARTESIAN_POINT('',(0.,11.,6.73555739531044E-16));
#695=DIRECTION('',(0.,1.,6.12323399573677E-17));
#696=DIRECTION('',(6.12323399573677E-17,6.12323399573677E-17,-1.));
#697=FACE_OUTER_BOUND('',#698,.T.);
#698=EDGE_LOOP('',(#1013));
#699=FACE_OUTER_BOUND('',#700,.T.);
#700=EDGE_LOOP('',(#1014));
#701=CYLINDRICAL_SURFACE('',#702,1.4);
#702=AXIS2_PLACEMENT_3D('',#703,#704,#705);
#703=CARTESIAN_POINT('',(-86.75,5.,-28.));
#704=DIRECTION('',(0.,1.,6.12323399573677E-17));
#705=DIRECTION('',(6.12323399573676E-17,6.12323399573676E-17,-1.));
#706=FACE_OUTER_BOUND('',#707,.T.);
#707=EDGE_LOOP('',(#1015));
#708=FACE_OUTER_BOUND('',#709,.T.);
#709=EDGE_LOOP('',(#1016));
#710=CYLINDRICAL_SURFACE('',#711,1.4);
#711=AXIS2_PLACEMENT_3D('',#712,#713,#714);
#712=CARTESIAN_POINT('',(-17.25,5.,-28.));
#713=DIRECTION('',(0.,1.,6.12323399573677E-17));
#714=DIRECTION('',(6.12323399573676E-17,6.12323399573676E-17,-1.));
#715=FACE_OUTER_BOUND('',#716,.T.);
#716=EDGE_LOOP('',(#1017));
#717=FACE_OUTER_BOUND('',#718,.T.);
#718=EDGE_LOOP('',(#1018));
#719=CYLINDRICAL_SURFACE('',#720,1.4);
#720=AXIS2_PLACEMENT_3D('',#721,#722,#723);
#721=CARTESIAN_POINT('',(-17.25,5.,33.75));
#722=DIRECTION('',(0.,1.,6.12323399573677E-17));
#723=DIRECTION('',(6.12323399573676E-17,6.12323399573676E-17,-1.));
#724=FACE_OUTER_BOUND('',#725,.T.);
#725=EDGE_LOOP('',(#1019));
#726=FACE_OUTER_BOUND('',#727,.T.);
#727=EDGE_LOOP('',(#1020));
#728=CYLINDRICAL_SURFACE('',#729,1.4);
#729=AXIS2_PLACEMENT_3D('',#730,#731,#732);
#730=CARTESIAN_POINT('',(-86.75,5.,33.75));
#731=DIRECTION('',(0.,1.,6.12323399573677E-17));
#732=DIRECTION('',(6.12323399573676E-17,6.12323399573676E-17,-1.));
#733=FACE_BOUND('',#734,.T.);
#734=EDGE_LOOP('',(#1021));
#735=PLANE('',#736);
#736=AXIS2_PLACEMENT_3D('',#737,#738,#739);
#737=CARTESIAN_POINT('',(0.,5.,3.06161699786838E-16));
#738=DIRECTION('',(0.,1.,6.12323399573677E-17));
#739=DIRECTION('',(6.12323399573677E-17,6.12323399573677E-17,-1.));
#740=FACE_BOUND('',#741,.T.);
#741=EDGE_LOOP('',(#1022));
#742=PLANE('',#743);
#743=AXIS2_PLACEMENT_3D('',#744,#745,#746);
#744=CARTESIAN_POINT('',(0.,5.,3.06161699786838E-16));
#745=DIRECTION('',(0.,1.,6.12323399573677E-17));
#746=DIRECTION('',(6.12323399573677E-17,6.12323399573677E-17,-1.));
#747=FACE_BOUND('',#748,.T.);
#748=EDGE_LOOP('',(#1023));
#749=PLANE('',#750);
#750=AXIS2_PLACEMENT_3D('',#751,#752,#753);
#751=CARTESIAN_POINT('',(0.,5.,3.06161699786838E-16));
#752=DIRECTION('',(0.,1.,6.12323399573677E-17));
#753=DIRECTION('',(6.12323399573677E-17,6.12323399573677E-17,-1.));
#754=FACE_BOUND('',#755,.T.);
#755=EDGE_LOOP('',(#1024));
#756=PLANE('',#757);
#757=AXIS2_PLACEMENT_3D('',#758,#759,#760);
#758=CARTESIAN_POINT('',(0.,5.,3.06161699786838E-16));
#759=DIRECTION('',(0.,1.,6.12323399573677E-17));
#760=DIRECTION('',(6.12323399573677E-17,6.12323399573677E-17,-1.));
#761=ORIENTED_EDGE('',*,*,#1025,.F.);
#762=ORIENTED_EDGE('',*,*,#1026,.T.);
#763=ORIENTED_EDGE('',*,*,#1027,.F.);
#764=ORIENTED_EDGE('',*,*,#1028,.T.);
#765=ORIENTED_EDGE('',*,*,#1029,.T.);
#766=ORIENTED_EDGE('',*,*,#1030,.T.);
#767=ORIENTED_EDGE('',*,*,#1031,.T.);
#768=ORIENTED_EDGE('',*,*,#1032,.T.);
#769=ORIENTED_EDGE('',*,*,#1033,.F.);
#770=ORIENTED_EDGE('',*,*,#1034,.T.);
#771=ORIENTED_EDGE('',*,*,#1035,.F.);
#772=ORIENTED_EDGE('',*,*,#1036,.T.);
#773=ORIENTED_EDGE('',*,*,#1037,.T.);
#774=ORIENTED_EDGE('',*,*,#1038,.T.);
#775=ORIENTED_EDGE('',*,*,#1039,.T.);
#776=ORIENTED_EDGE('',*,*,#1040,.T.);
#777=ORIENTED_EDGE('',*,*,#1032,.F.);
#778=ORIENTED_EDGE('',*,*,#1041,.F.);
#779=ORIENTED_EDGE('',*,*,#1031,.F.);
#780=ORIENTED_EDGE('',*,*,#1042,.F.);
#781=ORIENTED_EDGE('',*,*,#1030,.F.);
#782=ORIENTED_EDGE('',*,*,#1043,.F.);
#783=ORIENTED_EDGE('',*,*,#1029,.F.);
#784=ORIENTED_EDGE('',*,*,#1044,.F.);
#785=ORIENTED_EDGE('',*,*,#1040,.F.);
#786=ORIENTED_EDGE('',*,*,#1045,.F.);
#787=ORIENTED_EDGE('',*,*,#1039,.F.);
#788=ORIENTED_EDGE('',*,*,#1046,.F.);
#789=ORIENTED_EDGE('',*,*,#1038,.F.);
#790=ORIENTED_EDGE('',*,*,#1047,.F.);
#791=ORIENTED_EDGE('',*,*,#1037,.F.);
#792=ORIENTED_EDGE('',*,*,#1048,.F.);
#793=ORIENTED_EDGE('',*,*,#1049,.F.);
#794=ORIENTED_EDGE('',*,*,#1050,.T.);
#795=ORIENTED_EDGE('',*,*,#1051,.T.);
#796=ORIENTED_EDGE('',*,*,#1025,.T.);
#797=ORIENTED_EDGE('',*,*,#1052,.F.);
#798=ORIENTED_EDGE('',*,*,#1053,.T.);
#799=ORIENTED_EDGE('',*,*,#1054,.F.);
#800=ORIENTED_EDGE('',*,*,#1055,.F.);
#801=ORIENTED_EDGE('',*,*,#1056,.T.);
#802=ORIENTED_EDGE('',*,*,#1057,.T.);
#803=ORIENTED_EDGE('',*,*,#1036,.F.);
#804=ORIENTED_EDGE('',*,*,#1058,.F.);
#805=ORIENTED_EDGE('',*,*,#1059,.F.);
#806=ORIENTED_EDGE('',*,*,#1060,.F.);
#807=ORIENTED_EDGE('',*,*,#1026,.F.);
#808=ORIENTED_EDGE('',*,*,#1051,.F.);
#809=ORIENTED_EDGE('',*,*,#1060,.T.);
#810=ORIENTED_EDGE('',*,*,#1061,.F.);
#811=ORIENTED_EDGE('',*,*,#1062,.F.);
#812=ORIENTED_EDGE('',*,*,#1063,.T.);
#813=ORIENTED_EDGE('',*,*,#1064,.T.);
#814=ORIENTED_EDGE('',*,*,#1065,.F.);
#815=ORIENTED_EDGE('',*,*,#1066,.T.);
#816=ORIENTED_EDGE('',*,*,#1027,.T.);
#817=ORIENTED_EDGE('',*,*,#1067,.T.);
#818=ORIENTED_EDGE('',*,*,#1068,.T.);
#819=ORIENTED_EDGE('',*,*,#1052,.T.);
#820=ORIENTED_EDGE('',*,*,#1028,.F.);
#821=ORIENTED_EDGE('',*,*,#1066,.F.);
#822=ORIENTED_EDGE('',*,*,#1069,.F.);
#823=ORIENTED_EDGE('',*,*,#1070,.F.);
#824=ORIENTED_EDGE('',*,*,#1034,.F.);
#825=ORIENTED_EDGE('',*,*,#1071,.F.);
#826=ORIENTED_EDGE('',*,*,#1072,.T.);
#827=ORIENTED_EDGE('',*,*,#1073,.F.);
#828=ORIENTED_EDGE('',*,*,#1074,.F.);
#829=ORIENTED_EDGE('',*,*,#1075,.F.);
#830=ORIENTED_EDGE('',*,*,#1076,.T.);
#831=ORIENTED_EDGE('',*,*,#1071,.T.);
#832=ORIENTED_EDGE('',*,*,#1033,.T.);
#833=ORIENTED_EDGE('',*,*,#1057,.F.);
#834=ORIENTED_EDGE('',*,*,#1077,.T.);
#835=ORIENTED_EDGE('',*,*,#1078,.T.);
#836=ORIENTED_EDGE('',*,*,#1058,.T.);
#837=ORIENTED_EDGE('',*,*,#1035,.T.);
#838=ORIENTED_EDGE('',*,*,#1070,.T.);
#839=ORIENTED_EDGE('',*,*,#1079,.F.);
#840=ORIENTED_EDGE('',*,*,#1080,.F.);
#841=ORIENTED_EDGE('',*,*,#1081,.T.);
#842=ORIENTED_EDGE('',*,*,#1082,.T.);
#843=ORIENTED_EDGE('',*,*,#1083,.F.);
#844=ORIENTED_EDGE('',*,*,#1084,.T.);
#845=ORIENTED_EDGE('',*,*,#1041,.T.);
#846=ORIENTED_EDGE('',*,*,#1042,.T.);
#847=ORIENTED_EDGE('',*,*,#1043,.T.);
#848=ORIENTED_EDGE('',*,*,#1044,.T.);
#849=ORIENTED_EDGE('',*,*,#1045,.T.);
#850=ORIENTED_EDGE('',*,*,#1046,.T.);
#851=ORIENTED_EDGE('',*,*,#1047,.T.);
#852=ORIENTED_EDGE('',*,*,#1048,.T.);
#853=ORIENTED_EDGE('',*,*,#1073,.T.);
#854=ORIENTED_EDGE('',*,*,#1085,.T.);
#855=ORIENTED_EDGE('',*,*,#1049,.T.);
#856=ORIENTED_EDGE('',*,*,#1086,.F.);
#857=ORIENTED_EDGE('',*,*,#1087,.F.);
#858=ORIENTED_EDGE('',*,*,#1088,.T.);
#859=ORIENTED_EDGE('',*,*,#1089,.T.);
#860=ORIENTED_EDGE('',*,*,#1090,.T.);
#861=ORIENTED_EDGE('',*,*,#1091,.F.);
#862=ORIENTED_EDGE('',*,*,#1092,.T.);
#863=ORIENTED_EDGE('',*,*,#1085,.F.);
#864=ORIENTED_EDGE('',*,*,#1077,.F.);
#865=ORIENTED_EDGE('',*,*,#1056,.F.);
#866=ORIENTED_EDGE('',*,*,#1050,.F.);
#867=ORIENTED_EDGE('',*,*,#1093,.F.);
#868=ORIENTED_EDGE('',*,*,#1053,.F.);
#869=ORIENTED_EDGE('',*,*,#1068,.F.);
#870=ORIENTED_EDGE('',*,*,#1076,.F.);
#871=ORIENTED_EDGE('',*,*,#1094,.F.);
#872=ORIENTED_EDGE('',*,*,#1095,.F.);
#873=ORIENTED_EDGE('',*,*,#1096,.F.);
#874=ORIENTED_EDGE('',*,*,#1097,.F.);
#875=ORIENTED_EDGE('',*,*,#1075,.T.);
#876=ORIENTED_EDGE('',*,*,#1098,.F.);
#877=ORIENTED_EDGE('',*,*,#1054,.T.);
#878=ORIENTED_EDGE('',*,*,#1093,.T.);
#879=ORIENTED_EDGE('',*,*,#1099,.F.);
#880=ORIENTED_EDGE('',*,*,#1100,.T.);
#881=ORIENTED_EDGE('',*,*,#1101,.F.);
#882=ORIENTED_EDGE('',*,*,#1102,.T.);
#883=ORIENTED_EDGE('',*,*,#1103,.T.);
#884=ORIENTED_EDGE('',*,*,#1104,.T.);
#885=ORIENTED_EDGE('',*,*,#1074,.T.);
#886=ORIENTED_EDGE('',*,*,#1086,.T.);
#887=ORIENTED_EDGE('',*,*,#1055,.T.);
#888=ORIENTED_EDGE('',*,*,#1098,.T.);
#889=ORIENTED_EDGE('',*,*,#1083,.T.);
#890=ORIENTED_EDGE('',*,*,#1105,.T.);
#891=ORIENTED_EDGE('',*,*,#1061,.T.);
#892=ORIENTED_EDGE('',*,*,#1059,.T.);
#893=ORIENTED_EDGE('',*,*,#1106,.T.);
#894=ORIENTED_EDGE('',*,*,#1107,.T.);
#895=ORIENTED_EDGE('',*,*,#1108,.F.);
#896=ORIENTED_EDGE('',*,*,#1062,.T.);
#897=ORIENTED_EDGE('',*,*,#1105,.F.);
#898=ORIENTED_EDGE('',*,*,#1082,.F.);
#899=ORIENTED_EDGE('',*,*,#1109,.F.);
#900=ORIENTED_EDGE('',*,*,#1110,.F.);
#901=ORIENTED_EDGE('',*,*,#1063,.F.);
#902=ORIENTED_EDGE('',*,*,#1108,.T.);
#903=ORIENTED_EDGE('',*,*,#1111,.T.);
#904=ORIENTED_EDGE('',*,*,#1112,.T.);
#905=ORIENTED_EDGE('',*,*,#1113,.T.);
#906=ORIENTED_EDGE('',*,*,#1114,.T.);
#907=ORIENTED_EDGE('',*,*,#1115,.T.);
#908=ORIENTED_EDGE('',*,*,#1116,.T.);
#909=ORIENTED_EDGE('',*,*,#1117,.T.);
#910=ORIENTED_EDGE('',*,*,#1118,.T.);
#911=ORIENTED_EDGE('',*,*,#1119,.F.);
#912=ORIENTED_EDGE('',*,*,#1080,.T.);
#913=ORIENTED_EDGE('',*,*,#1120,.F.);
#914=ORIENTED_EDGE('',*,*,#1064,.F.);
#915=ORIENTED_EDGE('',*,*,#1112,.F.);
#916=ORIENTED_EDGE('',*,*,#1121,.F.);
#917=ORIENTED_EDGE('',*,*,#1122,.T.);
#918=ORIENTED_EDGE('',*,*,#1065,.T.);
#919=ORIENTED_EDGE('',*,*,#1120,.T.);
#920=ORIENTED_EDGE('',*,*,#1079,.T.);
#921=ORIENTED_EDGE('',*,*,#1069,.T.);
#922=ORIENTED_EDGE('',*,*,#1123,.F.);
#923=ORIENTED_EDGE('',*,*,#1067,.F.);
#924=ORIENTED_EDGE('',*,*,#1072,.F.);
#925=ORIENTED_EDGE('',*,*,#1122,.F.);
#926=ORIENTED_EDGE('',*,*,#1084,.F.);
#927=ORIENTED_EDGE('',*,*,#1078,.F.);
#928=ORIENTED_EDGE('',*,*,#1081,.F.);
#929=ORIENTED_EDGE('',*,*,#1119,.T.);
#930=ORIENTED_EDGE('',*,*,#1124,.T.);
#931=ORIENTED_EDGE('',*,*,#1109,.T.);
#932=ORIENTED_EDGE('',*,*,#1125,.T.);
#933=ORIENTED_EDGE('',*,*,#1126,.T.);
#934=ORIENTED_EDGE('',*,*,#1127,.T.);
#935=ORIENTED_EDGE('',*,*,#1128,.T.);
#936=ORIENTED_EDGE('',*,*,#1129,.T.);
#937=ORIENTED_EDGE('',*,*,#1087,.T.);
#938=ORIENTED_EDGE('',*,*,#1130,.F.);
#939=ORIENTED_EDGE('',*,*,#1099,.T.);
#940=ORIENTED_EDGE('',*,*,#1129,.F.);
#941=ORIENTED_EDGE('',*,*,#1104,.F.);
#942=ORIENTED_EDGE('',*,*,#1131,.T.);
#943=ORIENTED_EDGE('',*,*,#1088,.F.);
#944=ORIENTED_EDGE('',*,*,#1103,.F.);
#945=ORIENTED_EDGE('',*,*,#1132,.T.);
#946=ORIENTED_EDGE('',*,*,#1089,.F.);
#947=ORIENTED_EDGE('',*,*,#1131,.F.);
#948=ORIENTED_EDGE('',*,*,#1133,.T.);
#949=ORIENTED_EDGE('',*,*,#1090,.F.);
#950=ORIENTED_EDGE('',*,*,#1132,.F.);
#951=ORIENTED_EDGE('',*,*,#1102,.F.);
#952=ORIENTED_EDGE('',*,*,#1134,.T.);
#953=ORIENTED_EDGE('',*,*,#1091,.T.);
#954=ORIENTED_EDGE('',*,*,#1133,.F.);
#955=ORIENTED_EDGE('',*,*,#1101,.T.);
#956=ORIENTED_EDGE('',*,*,#1130,.T.);
#957=ORIENTED_EDGE('',*,*,#1092,.F.);
#958=ORIENTED_EDGE('',*,*,#1134,.F.);
#959=ORIENTED_EDGE('',*,*,#1100,.F.);
#960=ORIENTED_EDGE('',*,*,#1135,.F.);
#961=ORIENTED_EDGE('',*,*,#1094,.T.);
#962=ORIENTED_EDGE('',*,*,#1136,.F.);
#963=ORIENTED_EDGE('',*,*,#1095,.T.);
#964=ORIENTED_EDGE('',*,*,#1137,.F.);
#965=ORIENTED_EDGE('',*,*,#1096,.T.);
#966=ORIENTED_EDGE('',*,*,#1138,.F.);
#967=ORIENTED_EDGE('',*,*,#1097,.T.);
#968=ORIENTED_EDGE('',*,*,#1139,.F.);
#969=ORIENTED_EDGE('',*,*,#1117,.F.);
#970=ORIENTED_EDGE('',*,*,#1140,.F.);
#971=ORIENTED_EDGE('',*,*,#1106,.F.);
#972=ORIENTED_EDGE('',*,*,#1141,.T.);
#973=ORIENTED_EDGE('',*,*,#1142,.T.);
#974=ORIENTED_EDGE('',*,*,#1143,.T.);
#975=ORIENTED_EDGE('',*,*,#1144,.T.);
#976=ORIENTED_EDGE('',*,*,#1145,.T.);
#977=ORIENTED_EDGE('',*,*,#1146,.T.);
#978=ORIENTED_EDGE('',*,*,#1147,.T.);
#979=ORIENTED_EDGE('',*,*,#1148,.T.);
#980=ORIENTED_EDGE('',*,*,#1140,.T.);
#981=ORIENTED_EDGE('',*,*,#1121,.T.);
#982=ORIENTED_EDGE('',*,*,#1111,.F.);
#983=ORIENTED_EDGE('',*,*,#1107,.F.);
#984=ORIENTED_EDGE('',*,*,#1139,.T.);
#985=ORIENTED_EDGE('',*,*,#1110,.T.);
#986=ORIENTED_EDGE('',*,*,#1124,.F.);
#987=ORIENTED_EDGE('',*,*,#1118,.F.);
#988=ORIENTED_EDGE('',*,*,#1113,.F.);
#989=ORIENTED_EDGE('',*,*,#1145,.F.);
#990=ORIENTED_EDGE('',*,*,#1114,.F.);
#991=ORIENTED_EDGE('',*,*,#1146,.F.);
#992=ORIENTED_EDGE('',*,*,#1115,.F.);
#993=ORIENTED_EDGE('',*,*,#1147,.F.);
#994=ORIENTED_EDGE('',*,*,#1116,.F.);
#995=ORIENTED_EDGE('',*,*,#1148,.F.);
#996=ORIENTED_EDGE('',*,*,#1123,.T.);
#997=ORIENTED_EDGE('',*,*,#1125,.F.);
#998=ORIENTED_EDGE('',*,*,#1141,.F.);
#999=ORIENTED_EDGE('',*,*,#1126,.F.);
#1000=ORIENTED_EDGE('',*,*,#1142,.F.);
#1001=ORIENTED_EDGE('',*,*,#1127,.F.);
#1002=ORIENTED_EDGE('',*,*,#1143,.F.);
#1003=ORIENTED_EDGE('',*,*,#1128,.F.);
#1004=ORIENTED_EDGE('',*,*,#1144,.F.);
#1005=ORIENTED_EDGE('',*,*,#1135,.T.);
#1006=ORIENTED_EDGE('',*,*,#1149,.T.);
#1007=ORIENTED_EDGE('',*,*,#1136,.T.);
#1008=ORIENTED_EDGE('',*,*,#1150,.T.);
#1009=ORIENTED_EDGE('',*,*,#1137,.T.);
#1010=ORIENTED_EDGE('',*,*,#1151,.T.);
#1011=ORIENTED_EDGE('',*,*,#1138,.T.);
#1012=ORIENTED_EDGE('',*,*,#1152,.T.);
#1013=ORIENTED_EDGE('',*,*,#1149,.F.);
#1014=ORIENTED_EDGE('',*,*,#1153,.T.);
#1015=ORIENTED_EDGE('',*,*,#1150,.F.);
#1016=ORIENTED_EDGE('',*,*,#1154,.T.);
#1017=ORIENTED_EDGE('',*,*,#1151,.F.);
#1018=ORIENTED_EDGE('',*,*,#1155,.T.);
#1019=ORIENTED_EDGE('',*,*,#1152,.F.);
#1020=ORIENTED_EDGE('',*,*,#1156,.T.);
#1021=ORIENTED_EDGE('',*,*,#1153,.F.);
#1022=ORIENTED_EDGE('',*,*,#1154,.F.);
#1023=ORIENTED_EDGE('',*,*,#1155,.F.);
#1024=ORIENTED_EDGE('',*,*,#1156,.F.);
#1025=EDGE_CURVE('',#1157,#1158,#1159,.F.);
#1026=EDGE_CURVE('',#1157,#1160,#1161,.T.);
#1027=EDGE_CURVE('',#1162,#1160,#1163,.T.);
#1028=EDGE_CURVE('',#1162,#1158,#1164,.T.);
#1029=EDGE_CURVE('',#1165,#1165,#1166,.F.);
#1030=EDGE_CURVE('',#1167,#1167,#1168,.F.);
#1031=EDGE_CURVE('',#1169,#1169,#1170,.F.);
#1032=EDGE_CURVE('',#1171,#1171,#1172,.F.);
#1033=EDGE_CURVE('',#1173,#1174,#1175,.F.);
#1034=EDGE_CURVE('',#1173,#1176,#1177,.T.);
#1035=EDGE_CURVE('',#1178,#1176,#1179,.T.);
#1036=EDGE_CURVE('',#1178,#1174,#1180,.T.);
#1037=EDGE_CURVE('',#1181,#1181,#1182,.F.);
#1038=EDGE_CURVE('',#1183,#1183,#1184,.F.);
#1039=EDGE_CURVE('',#1185,#1185,#1186,.F.);
#1040=EDGE_CURVE('',#1187,#1187,#1188,.F.);
#1041=EDGE_CURVE('',#1189,#1189,#1190,.T.);
#1042=EDGE_CURVE('',#1191,#1191,#1192,.T.);
#1043=EDGE_CURVE('',#1193,#1193,#1194,.T.);
#1044=EDGE_CURVE('',#1195,#1195,#1196,.T.);
#1045=EDGE_CURVE('',#1197,#1197,#1198,.T.);
#1046=EDGE_CURVE('',#1199,#1199,#1200,.T.);
#1047=EDGE_CURVE('',#1201,#1201,#1202,.T.);
#1048=EDGE_CURVE('',#1203,#1203,#1204,.T.);
#1049=EDGE_CURVE('',#1205,#1206,#1207,.F.);
#1050=EDGE_CURVE('',#1205,#1208,#1209,.F.);
#1051=EDGE_CURVE('',#1208,#1157,#1210,.T.);
#1052=EDGE_CURVE('',#1211,#1158,#1212,.T.);
#1053=EDGE_CURVE('',#1211,#1213,#1214,.F.);
#1054=EDGE_CURVE('',#1215,#1213,#1216,.F.);
#1055=EDGE_CURVE('',#1206,#1215,#1217,.F.);
#1056=EDGE_CURVE('',#1208,#1218,#1219,.F.);
#1057=EDGE_CURVE('',#1218,#1174,#1220,.T.);
#1058=EDGE_CURVE('',#1221,#1178,#1222,.F.);
#1059=EDGE_CURVE('',#1223,#1221,#1224,.F.);
#1060=EDGE_CURVE('',#1160,#1223,#1225,.F.);
#1061=EDGE_CURVE('',#1226,#1223,#1227,.T.);
#1062=EDGE_CURVE('',#1228,#1226,#1229,.T.);
#1063=EDGE_CURVE('',#1228,#1230,#1231,.T.);
#1064=EDGE_CURVE('',#1230,#1232,#1233,.T.);
#1065=EDGE_CURVE('',#1234,#1232,#1235,.T.);
#1066=EDGE_CURVE('',#1234,#1162,#1236,.F.);
#1067=EDGE_CURVE('',#1237,#1237,#1238,.F.);
#1068=EDGE_CURVE('',#1239,#1211,#1240,.F.);
#1069=EDGE_CURVE('',#1241,#1234,#1242,.F.);
#1070=EDGE_CURVE('',#1176,#1241,#1243,.F.);
#1071=EDGE_CURVE('',#1239,#1173,#1244,.T.);
#1072=EDGE_CURVE('',#1245,#1245,#1246,.T.);
#1073=EDGE_CURVE('',#1247,#1248,#1249,.F.);
#1074=EDGE_CURVE('',#1250,#1247,#1251,.F.);
#1075=EDGE_CURVE('',#1252,#1250,#1253,.F.);
#1076=EDGE_CURVE('',#1252,#1239,#1254,.F.);
#1077=EDGE_CURVE('',#1218,#1248,#1255,.F.);
#1078=EDGE_CURVE('',#1256,#1256,#1257,.T.);
#1079=EDGE_CURVE('',#1258,#1241,#1259,.T.);
#1080=EDGE_CURVE('',#1260,#1258,#1261,.T.);
#1081=EDGE_CURVE('',#1260,#1262,#1263,.T.);
#1082=EDGE_CURVE('',#1262,#1264,#1265,.T.);
#1083=EDGE_CURVE('',#1221,#1264,#1266,.T.);
#1084=EDGE_CURVE('',#1267,#1267,#1268,.F.);
#1085=EDGE_CURVE('',#1248,#1205,#1269,.T.);
#1086=EDGE_CURVE('',#1247,#1206,#1270,.T.);
#1087=EDGE_CURVE('',#1271,#1272,#1273,.F.);
#1088=EDGE_CURVE('',#1271,#1274,#1275,.F.);
#1089=EDGE_CURVE('',#1274,#1276,#1277,.F.);
#1090=EDGE_CURVE('',#1276,#1278,#1279,.F.);
#1091=EDGE_CURVE('',#1280,#1278,#1281,.F.);
#1092=EDGE_CURVE('',#1280,#1272,#1282,.F.);
#1093=EDGE_CURVE('',#1213,#1252,#1283,.T.);
#1094=EDGE_CURVE('',#1284,#1284,#1285,.T.);
#1095=EDGE_CURVE('',#1286,#1286,#1287,.T.);
#1096=EDGE_CURVE('',#1288,#1288,#1289,.T.);
#1097=EDGE_CURVE('',#1290,#1290,#1291,.T.);
#1098=EDGE_CURVE('',#1215,#1250,#1292,.T.);
#1099=EDGE_CURVE('',#1293,#1294,#1295,.F.);
#1100=EDGE_CURVE('',#1293,#1296,#1297,.F.);
#1101=EDGE_CURVE('',#1298,#1296,#1299,.F.);
#1102=EDGE_CURVE('',#1298,#1300,#1301,.F.);
#1103=EDGE_CURVE('',#1300,#1302,#1303,.F.);
#1104=EDGE_CURVE('',#1302,#1294,#1304,.F.);
#1105=EDGE_CURVE('',#1264,#1226,#1305,.T.);
#1106=EDGE_CURVE('',#1306,#1307,#1308,.T.);
#1107=EDGE_CURVE('',#1307,#1309,#1310,.T.);
#1108=EDGE_CURVE('',#1228,#1309,#1311,.T.);
#1109=EDGE_CURVE('',#1312,#1262,#1313,.T.);
#1110=EDGE_CURVE('',#1306,#1312,#1314,.T.);
#1111=EDGE_CURVE('',#1309,#1315,#1316,.T.);
#1112=EDGE_CURVE('',#1315,#1230,#1317,.T.);
#1113=EDGE_CURVE('',#1318,#1318,#1319,.F.);
#1114=EDGE_CURVE('',#1320,#1320,#1321,.F.);
#1115=EDGE_CURVE('',#1322,#1322,#1323,.F.);
#1116=EDGE_CURVE('',#1324,#1324,#1325,.F.);
#1117=EDGE_CURVE('',#1326,#1327,#1328,.T.);
#1118=EDGE_CURVE('',#1327,#1329,#1330,.T.);
#1119=EDGE_CURVE('',#1260,#1329,#1331,.T.);
#1120=EDGE_CURVE('',#1232,#1258,#1332,.T.);
#1121=EDGE_CURVE('',#1326,#1315,#1333,.T.);
#1122=EDGE_CURVE('',#1334,#1334,#1335,.F.);
#1123=EDGE_CURVE('',#1336,#1336,#1337,.T.);
#1124=EDGE_CURVE('',#1329,#1312,#1338,.T.);
#1125=EDGE_CURVE('',#1339,#1339,#1340,.F.);
#1126=EDGE_CURVE('',#1341,#1341,#1342,.F.);
#1127=EDGE_CURVE('',#1343,#1343,#1344,.F.);
#1128=EDGE_CURVE('',#1345,#1345,#1346,.F.);
#1129=EDGE_CURVE('',#1294,#1271,#1347,.T.);
#1130=EDGE_CURVE('',#1293,#1272,#1348,.T.);
#1131=EDGE_CURVE('',#1302,#1274,#1349,.T.);
#1132=EDGE_CURVE('',#1300,#1276,#1350,.T.);
#1133=EDGE_CURVE('',#1298,#1278,#1351,.T.);
#1134=EDGE_CURVE('',#1296,#1280,#1352,.T.);
#1135=EDGE_CURVE('',#1353,#1353,#1354,.T.);
#1136=EDGE_CURVE('',#1355,#1355,#1356,.T.);
#1137=EDGE_CURVE('',#1357,#1357,#1358,.T.);
#1138=EDGE_CURVE('',#1359,#1359,#1360,.T.);
#1139=EDGE_CURVE('',#1327,#1306,#1361,.T.);
#1140=EDGE_CURVE('',#1307,#1326,#1362,.T.);
#1141=EDGE_CURVE('',#1363,#1363,#1364,.T.);
#1142=EDGE_CURVE('',#1365,#1365,#1366,.T.);
#1143=EDGE_CURVE('',#1367,#1367,#1368,.T.);
#1144=EDGE_CURVE('',#1369,#1369,#1370,.T.);
#1145=EDGE_CURVE('',#1371,#1371,#1372,.T.);
#1146=EDGE_CURVE('',#1373,#1373,#1374,.T.);
#1147=EDGE_CURVE('',#1375,#1375,#1376,.T.);
#1148=EDGE_CURVE('',#1377,#1377,#1378,.T.);
#1149=EDGE_CURVE('',#1379,#1379,#1380,.F.);
#1150=EDGE_CURVE('',#1381,#1381,#1382,.F.);
#1151=EDGE_CURVE('',#1383,#1383,#1384,.F.);
#1152=EDGE_CURVE('',#1385,#1385,#1386,.F.);
#1153=EDGE_CURVE('',#1387,#1387,#1388,.F.);
#1154=EDGE_CURVE('',#1389,#1389,#1390,.F.);
#1155=EDGE_CURVE('',#1391,#1391,#1392,.F.);
#1156=EDGE_CURVE('',#1393,#1393,#1394,.F.);
#1157=VERTEX_POINT('',#1395);
#1158=VERTEX_POINT('',#1396);
#1159=LINE('',#1397,#1398);
#1160=VERTEX_POINT('',#1400);
#1161=LINE('',#1401,#1402);
#1162=VERTEX_POINT('',#1404);
#1163=LINE('',#1405,#1406);
#1164=LINE('',#1408,#1409);
#1165=VERTEX_POINT('',#1411);
#1166=CIRCLE('',#1412,1.4);
#1167=VERTEX_POINT('',#1416);
#1168=CIRCLE('',#1417,1.4);
#1169=VERTEX_POINT('',#1421);
#1170=CIRCLE('',#1422,1.4);
#1171=VERTEX_POINT('',#1426);
#1172=CIRCLE('',#1427,1.4);
#1173=VERTEX_POINT('',#1431);
#1174=VERTEX_POINT('',#1432);
#1175=LINE('',#1433,#1434);
#1176=VERTEX_POINT('',#1436);
#1177=LINE('',#1437,#1438);
#1178=VERTEX_POINT('',#1440);
#1179=LINE('',#1441,#1442);
#1180=LINE('',#1444,#1445);
#1181=VERTEX_POINT('',#1447);
#1182=CIRCLE('',#1448,1.4);
#1183=VERTEX_POINT('',#1452);
#1184=CIRCLE('',#1453,1.4);
#1185=VERTEX_POINT('',#1457);
#1186=CIRCLE('',#1458,1.4);
#1187=VERTEX_POINT('',#1462);
#1188=CIRCLE('',#1463,1.4);
#1189=VERTEX_POINT('',#1467);
#1190=CIRCLE('',#1468,1.4);
#1191=VERTEX_POINT('',#1472);
#1192=CIRCLE('',#1473,1.4);
#1193=VERTEX_POINT('',#1477);
#1194=CIRCLE('',#1478,1.4);
#1195=VERTEX_POINT('',#1482);
#1196=CIRCLE('',#1483,1.4);
#1197=VERTEX_POINT('',#1487);
#1198=CIRCLE('',#1488,1.4);
#1199=VERTEX_POINT('',#1492);
#1200=CIRCLE('',#1493,1.4);
#1201=VERTEX_POINT('',#1497);
#1202=CIRCLE('',#1498,1.4);
#1203=VERTEX_POINT('',#1502);
#1204=CIRCLE('',#1503,1.4);
#1205=VERTEX_POINT('',#1507);
#1206=VERTEX_POINT('',#1508);
#1207=LINE('',#1509,#1510);
#1208=VERTEX_POINT('',#1512);
#1209=LINE('',#1513,#1514);
#1210=LINE('',#1516,#1517);
#1211=VERTEX_POINT('',#1519);
#1212=LINE('',#1520,#1521);
#1213=VERTEX_POINT('',#1523);
#1214=LINE('',#1524,#1525);
#1215=VERTEX_POINT('',#1527);
#1216=LINE('',#1528,#1529);
#1217=LINE('',#1531,#1532);
#1218=VERTEX_POINT('',#1534);
#1219=LINE('',#1535,#1536);
#1220=LINE('',#1538,#1539);
#1221=VERTEX_POINT('',#1541);
#1222=LINE('',#1542,#1543);
#1223=VERTEX_POINT('',#1545);
#1224=LINE('',#1546,#1547);
#1225=LINE('',#1549,#1550);
#1226=VERTEX_POINT('',#1552);
#1227=LINE('',#1553,#1554);
#1228=VERTEX_POINT('',#1556);
#1229=LINE('',#1557,#1558);
#1230=VERTEX_POINT('',#1560);
#1231=LINE('',#1561,#1562);
#1232=VERTEX_POINT('',#1564);
#1233=LINE('',#1565,#1566);
#1234=VERTEX_POINT('',#1568);
#1235=LINE('',#1569,#1570);
#1236=LINE('',#1572,#1573);
#1237=VERTEX_POINT('',#1575);
#1238=CIRCLE('',#1576,11.);
#1239=VERTEX_POINT('',#1580);
#1240=LINE('',#1581,#1582);
#1241=VERTEX_POINT('',#1584);
#1242=LINE('',#1585,#1586);
#1243=LINE('',#1588,#1589);
#1244=LINE('',#1591,#1592);
#1245=VERTEX_POINT('',#1594);
#1246=CIRCLE('',#1595,11.5);
#1247=VERTEX_POINT('',#1599);
#1248=VERTEX_POINT('',#1600);
#1249=LINE('',#1601,#1602);
#1250=VERTEX_POINT('',#1604);
#1251=LINE('',#1605,#1606);
#1252=VERTEX_POINT('',#1608);
#1253=LINE('',#1609,#1610);
#1254=LINE('',#1612,#1613);
#1255=LINE('',#1615,#1616);
#1256=VERTEX_POINT('',#1618);
#1257=CIRCLE('',#1619,5.5);
#1258=VERTEX_POINT('',#1623);
#1259=LINE('',#1624,#1625);
#1260=VERTEX_POINT('',#1627);
#1261=LINE('',#1628,#1629);
#1262=VERTEX_POINT('',#1631);
#1263=LINE('',#1632,#1633);
#1264=VERTEX_POINT('',#1635);
#1265=LINE('',#1636,#1637);
#1266=LINE('',#1639,#1640);
#1267=VERTEX_POINT('',#1642);
#1268=CIRCLE('',#1643,5.5);
#1269=LINE('',#1647,#1648);
#1270=LINE('',#1650,#1651);
#1271=VERTEX_POINT('',#1653);
#1272=VERTEX_POINT('',#1654);
#1273=LINE('',#1655,#1656);
#1274=VERTEX_POINT('',#1658);
#1275=LINE('',#1659,#1660);
#1276=VERTEX_POINT('',#1662);
#1277=LINE('',#1663,#1664);
#1278=VERTEX_POINT('',#1666);
#1279=LINE('',#1667,#1668);
#1280=VERTEX_POINT('',#1670);
#1281=LINE('',#1671,#1672);
#1282=LINE('',#1674,#1675);
#1283=LINE('',#1677,#1678);
#1284=VERTEX_POINT('',#1680);
#1285=CIRCLE('',#1681,4.);
#1286=VERTEX_POINT('',#1685);
#1287=CIRCLE('',#1686,4.);
#1288=VERTEX_POINT('',#1690);
#1289=CIRCLE('',#1691,4.);
#1290=VERTEX_POINT('',#1695);
#1291=CIRCLE('',#1696,4.);
#1292=LINE('',#1700,#1701);
#1293=VERTEX_POINT('',#1703);
#1294=VERTEX_POINT('',#1704);
#1295=LINE('',#1705,#1706);
#1296=VERTEX_POINT('',#1708);
#1297=LINE('',#1709,#1710);
#1298=VERTEX_POINT('',#1712);
#1299=LINE('',#1713,#1714);
#1300=VERTEX_POINT('',#1716);
#1301=LINE('',#1717,#1718);
#1302=VERTEX_POINT('',#1720);
#1303=LINE('',#1721,#1722);
#1304=LINE('',#1724,#1725);
#1305=LINE('',#1727,#1728);
#1306=VERTEX_POINT('',#1730);
#1307=VERTEX_POINT('',#1731);
#1308=LINE('',#1732,#1733);
#1309=VERTEX_POINT('',#1735);
#1310=LINE('',#1736,#1737);
#1311=LINE('',#1739,#1740);
#1312=VERTEX_POINT('',#1742);
#1313=LINE('',#1743,#1744);
#1314=LINE('',#1746,#1747);
#1315=VERTEX_POINT('',#1749);
#1316=LINE('',#1750,#1751);
#1317=LINE('',#1753,#1754);
#1318=VERTEX_POINT('',#1756);
#1319=CIRCLE('',#1757,1.4);
#1320=VERTEX_POINT('',#1761);
#1321=CIRCLE('',#1762,1.4);
#1322=VERTEX_POINT('',#1766);
#1323=CIRCLE('',#1767,1.4);
#1324=VERTEX_POINT('',#1771);
#1325=CIRCLE('',#1772,1.4);
#1326=VERTEX_POINT('',#1776);
#1327=VERTEX_POINT('',#1777);
#1328=LINE('',#1778,#1779);
#1329=VERTEX_POINT('',#1781);
#1330=LINE('',#1782,#1783);
#1331=LINE('',#1785,#1786);
#1332=LINE('',#1788,#1789);
#1333=LINE('',#1791,#1792);
#1334=VERTEX_POINT('',#1794);
#1335=CIRCLE('',#1795,11.5);
#1336=VERTEX_POINT('',#1799);
#1337=CIRCLE('',#1800,11.);
#1338=LINE('',#1804,#1805);
#1339=VERTEX_POINT('',#1807);
#1340=CIRCLE('',#1808,1.4);
#1341=VERTEX_POINT('',#1812);
#1342=CIRCLE('',#1813,1.4);
#1343=VERTEX_POINT('',#1817);
#1344=CIRCLE('',#1818,1.4);
#1345=VERTEX_POINT('',#1822);
#1346=CIRCLE('',#1823,1.4);
#1347=LINE('',#1827,#1828);
#1348=LINE('',#1830,#1831);
#1349=LINE('',#1833,#1834);
#1350=LINE('',#1836,#1837);
#1351=LINE('',#1839,#1840);
#1352=LINE('',#1842,#1843);
#1353=VERTEX_POINT('',#1845);
#1354=CIRCLE('',#1846,4.);
#1355=VERTEX_POINT('',#1850);
#1356=CIRCLE('',#1851,4.);
#1357=VERTEX_POINT('',#1855);
#1358=CIRCLE('',#1856,4.);
#1359=VERTEX_POINT('',#1860);
#1360=CIRCLE('',#1861,4.);
#1361=LINE('',#1865,#1866);
#1362=LINE('',#1868,#1869);
#1363=VERTEX_POINT('',#1871);
#1364=CIRCLE('',#1872,1.4);
#1365=VERTEX_POINT('',#1876);
#1366=CIRCLE('',#1877,1.4);
#1367=VERTEX_POINT('',#1881);
#1368=CIRCLE('',#1882,1.4);
#1369=VERTEX_POINT('',#1886);
#1370=CIRCLE('',#1887,1.4);
#1371=VERTEX_POINT('',#1891);
#1372=CIRCLE('',#1892,1.4);
#1373=VERTEX_POINT('',#1896);
#1374=CIRCLE('',#1897,1.4);
#1375=VERTEX_POINT('',#1901);
#1376=CIRCLE('',#1902,1.4);
#1377=VERTEX_POINT('',#1906);
#1378=CIRCLE('',#1907,1.4);
#1379=VERTEX_POINT('',#1911);
#1380=CIRCLE('',#1912,1.4);
#1381=VERTEX_POINT('',#1916);
#1382=CIRCLE('',#1917,1.4);
#1383=VERTEX_POINT('',#1921);
#1384=CIRCLE('',#1922,1.4);
#1385=VERTEX_POINT('',#1926);
#1386=CIRCLE('',#1927,1.4);
#1387=VERTEX_POINT('',#1931);
#1388=CIRCLE('',#1932,1.4);
#1389=VERTEX_POINT('',#1936);
#1390=CIRCLE('',#1937,1.4);
#1391=VERTEX_POINT('',#1941);
#1392=CIRCLE('',#1942,1.4);
#1393=VERTEX_POINT('',#1946);
#1394=CIRCLE('',#1947,1.4);
#1395=CARTESIAN_POINT('',(100.,38.,-45.));
#1396=CARTESIAN_POINT('',(-100.,38.,-45.));
#1397=CARTESIAN_POINT('',(-100.,38.,-45.));
#1398=VECTOR('',#1399,1.);
#1399=DIRECTION('',(1.,0.,7.105427357601E-17));
#1400=CARTESIAN_POINT('',(100.,38.,-52.));
#1401=CARTESIAN_POINT('',(100.,38.,-45.));
#1402=VECTOR('',#1403,1.);
#1403=DIRECTION('',(0.,0.,-1.));
#1404=CARTESIAN_POINT('',(-100.,38.,-52.));
#1405=CARTESIAN_POINT('',(-100.,38.,-52.));
#1406=VECTOR('',#1407,1.);
#1407=DIRECTION('',(1.,0.,7.105427357601E-17));
#1408=CARTESIAN_POINT('',(-100.,38.,-52.));
#1409=VECTOR('',#1410,1.);
#1410=DIRECTION('',(0.,0.,1.));
#1411=CARTESIAN_POINT('',(-87.5,38.,-49.9));
#1412=AXIS2_PLACEMENT_3D('',#1413,#1414,#1415);
#1413=CARTESIAN_POINT('',(-87.5,38.,-48.5));
#1414=DIRECTION('',(0.,1.,6.12323399573677E-17));
#1415=DIRECTION('',(6.12323399573676E-17,6.12323399573676E-17,-1.));
#1416=CARTESIAN_POINT('',(-30.,38.,-49.9));
#1417=AXIS2_PLACEMENT_3D('',#1418,#1419,#1420);
#1418=CARTESIAN_POINT('',(-30.,38.,-48.5));
#1419=DIRECTION('',(0.,1.,6.12323399573677E-17));
#1420=DIRECTION('',(6.12323399573676E-17,6.12323399573676E-17,-1.));
#1421=CARTESIAN_POINT('',(30.,38.,-49.9));
#1422=AXIS2_PLACEMENT_3D('',#1423,#1424,#1425);
#1423=CARTESIAN_POINT('',(30.,38.,-48.5));
#1424=DIRECTION('',(0.,1.,6.12323399573677E-17));
#1425=DIRECTION('',(6.12323399573676E-17,6.12323399573676E-17,-1.));
#1426=CARTESIAN_POINT('',(87.5,38.,-49.9));
#1427=AXIS2_PLACEMENT_3D('',#1428,#1429,#1430);
#1428=CARTESIAN_POINT('',(87.5,38.,-48.5));
#1429=DIRECTION('',(0.,1.,6.12323399573677E-17));
#1430=DIRECTION('',(6.12323399573676E-17,6.12323399573676E-17,-1.));
#1431=CARTESIAN_POINT('',(-100.,38.,45.));
#1432=CARTESIAN_POINT('',(100.,38.,45.));
#1433=CARTESIAN_POINT('',(100.,38.,45.));
#1434=VECTOR('',#1435,1.);
#1435=DIRECTION('',(-1.,0.,-7.105427357601E-17));
#1436=CARTESIAN_POINT('',(-100.,38.,52.));
#1437=CARTESIAN_POINT('',(-100.,38.,45.));
#1438=VECTOR('',#1439,1.);
#1439=DIRECTION('',(0.,0.,1.));
#1440=CARTESIAN_POINT('',(100.,38.,52.));
#1441=CARTESIAN_POINT('',(100.,38.,52.));
#1442=VECTOR('',#1443,1.);
#1443=DIRECTION('',(-1.,0.,-7.105427357601E-17));
#1444=CARTESIAN_POINT('',(100.,38.,52.));
#1445=VECTOR('',#1446,1.);
#1446=DIRECTION('',(0.,0.,-1.));
#1447=CARTESIAN_POINT('',(-87.5,38.,47.1));
#1448=AXIS2_PLACEMENT_3D('',#1449,#1450,#1451);
#1449=CARTESIAN_POINT('',(-87.5,38.,48.5));
#1450=DIRECTION('',(0.,1.,6.12323399573677E-17));
#1451=DIRECTION('',(6.12323399573676E-17,6.12323399573676E-17,-1.));
#1452=CARTESIAN_POINT('',(-30.,38.,47.1));
#1453=AXIS2_PLACEMENT_3D('',#1454,#1455,#1456);
#1454=CARTESIAN_POINT('',(-30.,38.,48.5));
#1455=DIRECTION('',(0.,1.,6.12323399573677E-17));
#1456=DIRECTION('',(6.12323399573676E-17,6.12323399573676E-17,-1.));
#1457=CARTESIAN_POINT('',(30.,38.,47.1));
#1458=AXIS2_PLACEMENT_3D('',#1459,#1460,#1461);
#1459=CARTESIAN_POINT('',(30.,38.,48.5));
#1460=DIRECTION('',(0.,1.,6.12323399573677E-17));
#1461=DIRECTION('',(6.12323399573676E-17,6.12323399573676E-17,-1.));
#1462=CARTESIAN_POINT('',(87.5,38.,47.1));
#1463=AXIS2_PLACEMENT_3D('',#1464,#1465,#1466);
#1464=CARTESIAN_POINT('',(87.5,38.,48.5));
#1465=DIRECTION('',(0.,1.,6.12323399573677E-17));
#1466=DIRECTION('',(6.12323399573676E-17,6.12323399573676E-17,-1.));
#1467=CARTESIAN_POINT('',(87.5,30.,-49.9));
#1468=AXIS2_PLACEMENT_3D('',#1469,#1470,#1471);
#1469=CARTESIAN_POINT('',(87.5,30.,-48.5));
#1470=DIRECTION('',(0.,1.,6.12323399573677E-17));
#1471=DIRECTION('',(6.12323399573677E-17,6.12323399573677E-17,-1.));
#1472=CARTESIAN_POINT('',(30.,30.,-49.9));
#1473=AXIS2_PLACEMENT_3D('',#1474,#1475,#1476);
#1474=CARTESIAN_POINT('',(30.,30.,-48.5));
#1475=DIRECTION('',(0.,1.,6.12323399573677E-17));
#1476=DIRECTION('',(6.12323399573677E-17,6.12323399573677E-17,-1.));
#1477=CARTESIAN_POINT('',(-30.,30.,-49.9));
#1478=AXIS2_PLACEMENT_3D('',#1479,#1480,#1481);
#1479=CARTESIAN_POINT('',(-30.,30.,-48.5));
#1480=DIRECTION('',(0.,1.,6.12323399573677E-17));
#1481=DIRECTION('',(6.12323399573677E-17,6.12323399573677E-17,-1.));
#1482=CARTESIAN_POINT('',(-87.5,30.,-49.9));
#1483=AXIS2_PLACEMENT_3D('',#1484,#1485,#1486);
#1484=CARTESIAN_POINT('',(-87.5,30.,-48.5));
#1485=DIRECTION('',(0.,1.,6.12323399573677E-17));
#1486=DIRECTION('',(6.12323399573677E-17,6.12323399573677E-17,-1.));
#1487=CARTESIAN_POINT('',(87.5,30.,47.1));
#1488=AXIS2_PLACEMENT_3D('',#1489,#1490,#1491);
#1489=CARTESIAN_POINT('',(87.5,30.,48.5));
#1490=DIRECTION('',(0.,1.,6.12323399573677E-17));
#1491=DIRECTION('',(6.12323399573677E-17,6.12323399573677E-17,-1.));
#1492=CARTESIAN_POINT('',(30.,30.,47.1));
#1493=AXIS2_PLACEMENT_3D('',#1494,#1495,#1496);
#1494=CARTESIAN_POINT('',(30.,30.,48.5));
#1495=DIRECTION('',(0.,1.,6.12323399573677E-17));
#1496=DIRECTION('',(6.12323399573677E-17,6.12323399573677E-17,-1.));
#1497=CARTESIAN_POINT('',(-30.,30.,47.1));
#1498=AXIS2_PLACEMENT_3D('',#1499,#1500,#1501);
#1499=CARTESIAN_POINT('',(-30.,30.,48.5));
#1500=DIRECTION('',(0.,1.,6.12323399573677E-17));
#1501=DIRECTION('',(6.12323399573677E-17,6.12323399573677E-17,-1.));
#1502=CARTESIAN_POINT('',(-87.5,30.,47.1));
#1503=AXIS2_PLACEMENT_3D('',#1504,#1505,#1506);
#1504=CARTESIAN_POINT('',(-87.5,30.,48.5));
#1505=DIRECTION('',(0.,1.,6.12323399573677E-17));
#1506=DIRECTION('',(6.12323399573677E-17,6.12323399573677E-17,-1.));
#1507=CARTESIAN_POINT('',(8.48315500664177E-15,5.,-45.));
#1508=CARTESIAN_POINT('',(1.99495252621331E-15,30.,-45.));
#1509=CARTESIAN_POINT('',(9.97476263106656E-16,30.,-45.));
#1510=VECTOR('',#1511,1.);
#1511=DIRECTION('',(7.88860905221012E-33,-1.,0.));
#1512=CARTESIAN_POINT('',(100.,5.,-45.));
#1513=CARTESIAN_POINT('',(100.,5.,-45.));
#1514=VECTOR('',#1515,1.);
#1515=DIRECTION('',(-1.,0.,-7.105427357601E-17));
#1516=CARTESIAN_POINT('',(100.,5.,-45.));
#1517=VECTOR('',#1518,1.);
#1518=DIRECTION('',(0.,1.,0.));
#1519=CARTESIAN_POINT('',(-100.,5.,-45.));
#1520=CARTESIAN_POINT('',(-100.,5.,-45.));
#1521=VECTOR('',#1522,1.);
#1522=DIRECTION('',(4.30631961066727E-16,1.,0.));
#1523=CARTESIAN_POINT('',(-1.99999999999999,5.,-45.));
#1524=CARTESIAN_POINT('',(-1.99999999999999,5.,-45.));
#1525=VECTOR('',#1526,1.);
#1526=DIRECTION('',(-1.,0.,-7.25043607918469E-17));
#1527=CARTESIAN_POINT('',(-2.,30.,-45.));
#1528=CARTESIAN_POINT('',(-2.,5.,-45.));
#1529=VECTOR('',#1530,1.);
#1530=DIRECTION('',(0.,1.,0.));
#1531=CARTESIAN_POINT('',(-2.,30.,-45.));
#1532=VECTOR('',#1533,1.);
#1533=DIRECTION('',(1.,0.,0.));
#1534=CARTESIAN_POINT('',(100.,5.,45.));
#1535=CARTESIAN_POINT('',(100.,5.,45.));
#1536=VECTOR('',#1537,1.);
#1537=DIRECTION('',(0.,5.9211894646675E-17,-1.));
#1538=CARTESIAN_POINT('',(100.,5.,45.));
#1539=VECTOR('',#1540,1.);
#1540=DIRECTION('',(-4.30631961066727E-16,1.,0.));
#1541=CARTESIAN_POINT('',(100.,40.,52.));
#1542=CARTESIAN_POINT('',(100.,38.,52.));
#1543=VECTOR('',#1544,1.);
#1544=DIRECTION('',(0.,1.,0.));
#1545=CARTESIAN_POINT('',(100.,40.,-52.));
#1546=CARTESIAN_POINT('',(100.,40.,52.));
#1547=VECTOR('',#1548,1.);
#1548=DIRECTION('',(0.,0.,-1.));
#1549=CARTESIAN_POINT('',(100.,40.,-52.));
#1550=VECTOR('',#1551,1.);
#1551=DIRECTION('',(0.,-1.,0.));
#1552=CARTESIAN_POINT('',(105.,40.,-52.));
#1553=CARTESIAN_POINT('',(105.,40.,-52.));
#1554=VECTOR('',#1555,1.);
#1555=DIRECTION('',(-1.,0.,0.));
#1556=CARTESIAN_POINT('',(105.,5.,-52.));
#1557=CARTESIAN_POINT('',(105.,5.,-52.));
#1558=VECTOR('',#1559,1.);
#1559=DIRECTION('',(0.,1.,0.));
#1560=CARTESIAN_POINT('',(-105.,5.,-52.));
#1561=CARTESIAN_POINT('',(105.,5.,-52.));
#1562=VECTOR('',#1563,1.);
#1563=DIRECTION('',(-1.,0.,-6.76707367390572E-17));
#1564=CARTESIAN_POINT('',(-105.,40.,-52.));
#1565=CARTESIAN_POINT('',(-105.,5.,-52.));
#1566=VECTOR('',#1567,1.);
#1567=DIRECTION('',(0.,1.,0.));
#1568=CARTESIAN_POINT('',(-100.,40.,-52.));
#1569=CARTESIAN_POINT('',(-100.,40.,-52.));
#1570=VECTOR('',#1571,1.);
#1571=DIRECTION('',(-1.,0.,0.));
#1572=CARTESIAN_POINT('',(-100.,38.,-52.));
#1573=VECTOR('',#1574,1.);
#1574=DIRECTION('',(0.,1.,0.));
#1575=CARTESIAN_POINT('',(40.4785605315752,24.9149445136642,-52.));
#1576=AXIS2_PLACEMENT_3D('',#1577,#1578,#1579);
#1577=CARTESIAN_POINT('',(51.4785605315752,24.9149445136642,-52.));
#1578=DIRECTION('',(6.76707367390572E-17,0.,-1.));
#1579=DIRECTION('',(-1.,0.,-6.76707367390572E-17));
#1580=CARTESIAN_POINT('',(-100.,5.,45.));
#1581=CARTESIAN_POINT('',(-100.,5.,-45.));
#1582=VECTOR('',#1583,1.);
#1583=DIRECTION('',(0.,-5.9211894646675E-17,1.));
#1584=CARTESIAN_POINT('',(-100.,40.,52.));
#1585=CARTESIAN_POINT('',(-100.,40.,-52.));
#1586=VECTOR('',#1587,1.);
#1587=DIRECTION('',(0.,0.,1.));
#1588=CARTESIAN_POINT('',(-100.,40.,52.));
#1589=VECTOR('',#1590,1.);
#1590=DIRECTION('',(0.,-1.,0.));
#1591=CARTESIAN_POINT('',(-100.,5.,45.));
#1592=VECTOR('',#1593,1.);
#1593=DIRECTION('',(0.,1.,0.));
#1594=CARTESIAN_POINT('',(-100.,11.,-20.));
#1595=AXIS2_PLACEMENT_3D('',#1596,#1597,#1598);
#1596=CARTESIAN_POINT('',(-100.,22.5,-20.));
#1597=DIRECTION('',(-1.,0.,0.));
#1598=DIRECTION('',(0.,-1.,-6.12323399573677E-17));
#1599=CARTESIAN_POINT('',(-1.7205007963578E-14,30.,45.));
#1600=CARTESIAN_POINT('',(-1.55885823642428E-14,5.,45.));
#1601=CARTESIAN_POINT('',(-1.570793133939E-14,5.,45.));
#1602=VECTOR('',#1603,1.);
#1603=DIRECTION('',(0.,1.,0.));
#1604=CARTESIAN_POINT('',(-2.,30.,45.));
#1605=CARTESIAN_POINT('',(0.,30.,45.));
#1606=VECTOR('',#1607,1.);
#1607=DIRECTION('',(-1.,0.,0.));
#1608=CARTESIAN_POINT('',(-2.,5.,45.));
#1609=CARTESIAN_POINT('',(-2.,30.,45.));
#1610=VECTOR('',#1611,1.);
#1611=DIRECTION('',(0.,-1.,0.));
#1612=CARTESIAN_POINT('',(-100.,5.,45.));
#1613=VECTOR('',#1614,1.);
#1614=DIRECTION('',(1.,0.,0.));
#1615=CARTESIAN_POINT('',(-1.55885823642428E-14,5.,45.));
#1616=VECTOR('',#1617,1.);
#1617=DIRECTION('',(1.,0.,1.4210854715202E-16));
#1618=CARTESIAN_POINT('',(17.5,20.,45.));
#1619=AXIS2_PLACEMENT_3D('',#1620,#1621,#1622);
#1620=CARTESIAN_POINT('',(12.,20.,45.));
#1621=DIRECTION('',(-7.105427357601E-17,0.,1.));
#1622=DIRECTION('',(1.,0.,7.105427357601E-17));
#1623=CARTESIAN_POINT('',(-105.,40.,52.));
#1624=CARTESIAN_POINT('',(-105.,40.,52.));
#1625=VECTOR('',#1626,1.);
#1626=DIRECTION('',(1.,0.,0.));
#1627=CARTESIAN_POINT('',(-105.,5.,52.));
#1628=CARTESIAN_POINT('',(-105.,5.,52.));
#1629=VECTOR('',#1630,1.);
#1630=DIRECTION('',(0.,1.,0.));
#1631=CARTESIAN_POINT('',(105.,5.,52.));
#1632=CARTESIAN_POINT('',(-105.,5.,52.));
#1633=VECTOR('',#1634,1.);
#1634=DIRECTION('',(1.,0.,6.76707367390572E-17));
#1635=CARTESIAN_POINT('',(105.,40.,52.));
#1636=CARTESIAN_POINT('',(105.,5.,52.));
#1637=VECTOR('',#1638,1.);
#1638=DIRECTION('',(0.,1.,0.));
#1639=CARTESIAN_POINT('',(100.,40.,52.));
#1640=VECTOR('',#1641,1.);
#1641=DIRECTION('',(1.,0.,0.));
#1642=CARTESIAN_POINT('',(17.5,20.,52.));
#1643=AXIS2_PLACEMENT_3D('',#1644,#1645,#1646);
#1644=CARTESIAN_POINT('',(12.,20.,52.));
#1645=DIRECTION('',(-6.76707367390572E-17,0.,1.));
#1646=DIRECTION('',(1.,0.,6.76707367390572E-17));
#1647=CARTESIAN_POINT('',(-1.7205007963578E-14,5.,45.));
#1648=VECTOR('',#1649,1.);
#1649=DIRECTION('',(2.13332894331014E-16,5.9211894646675E-17,-1.));
#1650=CARTESIAN_POINT('',(-1.7205007963578E-14,30.,45.));
#1651=VECTOR('',#1652,1.);
#1652=DIRECTION('',(2.13332894331014E-16,7.89491928622334E-17,-1.));
#1653=CARTESIAN_POINT('',(9.04452201517502E-16,17.,-39.));
#1654=CARTESIAN_POINT('',(3.2104496564477E-16,20.,-36.));
#1655=CARTESIAN_POINT('',(3.74782386170923E-17,20.,-36.));
#1656=VECTOR('',#1657,1.);
#1657=DIRECTION('',(7.54245681158063E-17,-0.707106781186548,-0.707106781186547));
#1658=CARTESIAN_POINT('',(7.14955160227227E-16,8.,-39.));
#1659=CARTESIAN_POINT('',(6.9054448750116E-16,8.,-39.));
#1660=VECTOR('',#1661,1.);
#1661=DIRECTION('',(0.,1.,0.));
#1662=CARTESIAN_POINT('',(-3.12503693773103E-15,8.,-21.));
#1663=CARTESIAN_POINT('',(-3.11683070334073E-15,8.,-21.));
#1664=VECTOR('',#1665,1.);
#1665=DIRECTION('',(2.11520843935661E-16,-1.97372982155583E-16,-1.));
#1666=CARTESIAN_POINT('',(-3.68344043271072E-15,17.,-21.));
#1667=CARTESIAN_POINT('',(-3.11683070334073E-15,17.,-21.));
#1668=VECTOR('',#1669,1.);
#1669=DIRECTION('',(0.,-1.,0.));
#1670=CARTESIAN_POINT('',(-2.90076239754629E-15,20.,-24.));
#1671=CARTESIAN_POINT('',(-3.74880380966582E-15,17.,-21.));
#1672=VECTOR('',#1673,1.);
#1673=DIRECTION('',(1.72045642496347E-16,0.707106781186546,-0.707106781186549));
#1674=CARTESIAN_POINT('',(3.74782386170923E-17,20.,-36.));
#1675=VECTOR('',#1676,1.);
#1676=DIRECTION('',(-2.17688749628023E-16,-2.96059473233375E-16,1.));
#1677=CARTESIAN_POINT('',(-2.,5.,-45.));
#1678=VECTOR('',#1679,1.);
#1679=DIRECTION('',(-5.9211894646675E-17,-5.9211894646675E-17,1.));
#1680=CARTESIAN_POINT('',(-86.75,5.,-32.));
#1681=AXIS2_PLACEMENT_3D('',#1682,#1683,#1684);
#1682=CARTESIAN_POINT('',(-86.75,5.,-28.));
#1683=DIRECTION('',(0.,1.,6.12323399573677E-17));
#1684=DIRECTION('',(6.12323399573677E-17,6.12323399573677E-17,-1.));
#1685=CARTESIAN_POINT('',(-17.25,5.,-32.));
#1686=AXIS2_PLACEMENT_3D('',#1687,#1688,#1689);
#1687=CARTESIAN_POINT('',(-17.25,5.,-28.));
#1688=DIRECTION('',(0.,1.,6.12323399573677E-17));
#1689=DIRECTION('',(6.12323399573677E-17,6.12323399573677E-17,-1.));
#1690=CARTESIAN_POINT('',(-17.25,5.,29.75));
#1691=AXIS2_PLACEMENT_3D('',#1692,#1693,#1694);
#1692=CARTESIAN_POINT('',(-17.25,5.,33.75));
#1693=DIRECTION('',(0.,1.,6.12323399573677E-17));
#1694=DIRECTION('',(6.12323399573677E-17,6.12323399573677E-17,-1.));
#1695=CARTESIAN_POINT('',(-86.75,5.,29.75));
#1696=AXIS2_PLACEMENT_3D('',#1697,#1698,#1699);
#1697=CARTESIAN_POINT('',(-86.75,5.,33.75));
#1698=DIRECTION('',(0.,1.,6.12323399573677E-17));
#1699=DIRECTION('',(6.12323399573677E-17,6.12323399573677E-17,-1.));
#1700=CARTESIAN_POINT('',(-2.,30.,-45.));
#1701=VECTOR('',#1702,1.);
#1702=DIRECTION('',(-5.9211894646675E-17,-7.89491928622334E-17,1.));
#1703=CARTESIAN_POINT('',(-2.,20.,-36.));
#1704=CARTESIAN_POINT('',(-2.,17.,-39.));
#1705=CARTESIAN_POINT('',(-2.,17.,-39.));
#1706=VECTOR('',#1707,1.);
#1707=DIRECTION('',(-5.23364152894592E-17,0.707106781186548,0.707106781186548));
#1708=CARTESIAN_POINT('',(-2.,20.,-24.));
#1709=CARTESIAN_POINT('',(-2.,20.,-24.));
#1710=VECTOR('',#1711,1.);
#1711=DIRECTION('',(7.40148683083438E-17,0.,-1.));
#1712=CARTESIAN_POINT('',(-2.,17.,-21.));
#1713=CARTESIAN_POINT('',(-2.,20.,-24.));
#1714=VECTOR('',#1715,1.);
#1715=DIRECTION('',(-2.09345661157836E-16,-0.707106781186546,0.707106781186549));
#1716=CARTESIAN_POINT('',(-2.,8.,-21.));
#1717=CARTESIAN_POINT('',(-2.,8.,-21.));
#1718=VECTOR('',#1719,1.);
#1719=DIRECTION('',(0.,1.,0.));
#1720=CARTESIAN_POINT('',(-2.,8.,-39.));
#1721=CARTESIAN_POINT('',(-2.,8.,-39.));
#1722=VECTOR('',#1723,1.);
#1723=DIRECTION('',(-6.16790569236198E-17,1.97372982155583E-16,1.));
#1724=CARTESIAN_POINT('',(-2.,17.,-39.));
#1725=VECTOR('',#1726,1.);
#1726=DIRECTION('',(0.,-1.,0.));
#1727=CARTESIAN_POINT('',(105.,40.,52.));
#1728=VECTOR('',#1729,1.);
#1729=DIRECTION('',(0.,0.,-1.));
#1730=CARTESIAN_POINT('',(105.,-3.67394039744206E-15,60.));
#1731=CARTESIAN_POINT('',(105.,3.67394039744206E-15,-60.));
#1732=CARTESIAN_POINT('',(105.,-3.67394039744206E-15,60.));
#1733=VECTOR('',#1734,1.);
#1734=DIRECTION('',(0.,6.12323399573677E-17,-1.));
#1735=CARTESIAN_POINT('',(105.,5.,-60.));
#1736=CARTESIAN_POINT('',(105.,3.67394039744206E-15,-60.));
#1737=VECTOR('',#1738,1.);
#1738=DIRECTION('',(0.,1.,0.));
#1739=CARTESIAN_POINT('',(105.,5.,-52.));
#1740=VECTOR('',#1741,1.);
#1741=DIRECTION('',(0.,0.,-1.));
#1742=CARTESIAN_POINT('',(105.,5.,60.));
#1743=CARTESIAN_POINT('',(105.,5.,60.));
#1744=VECTOR('',#1745,1.);
#1745=DIRECTION('',(0.,0.,-1.));
#1746=CARTESIAN_POINT('',(105.,-3.67394039744206E-15,60.));
#1747=VECTOR('',#1748,1.);
#1748=DIRECTION('',(0.,1.,0.));
#1749=CARTESIAN_POINT('',(-105.,5.,-60.));
#1750=CARTESIAN_POINT('',(105.,5.,-60.));
#1751=VECTOR('',#1752,1.);
#1752=DIRECTION('',(-1.,0.,-6.76707367390572E-17));
#1753=CARTESIAN_POINT('',(-105.,5.,-60.));
#1754=VECTOR('',#1755,1.);
#1755=DIRECTION('',(0.,0.,1.));
#1756=CARTESIAN_POINT('',(-87.5,5.,-54.6));
#1757=AXIS2_PLACEMENT_3D('',#1758,#1759,#1760);
#1758=CARTESIAN_POINT('',(-87.5,5.,-56.));
#1759=DIRECTION('',(0.,1.,6.12323399573677E-17));
#1760=DIRECTION('',(-6.12323399573676E-17,-6.12323399573676E-17,1.));
#1761=CARTESIAN_POINT('',(-30.,5.,-54.6));
#1762=AXIS2_PLACEMENT_3D('',#1763,#1764,#1765);
#1763=CARTESIAN_POINT('',(-30.,5.,-56.));
#1764=DIRECTION('',(0.,1.,6.12323399573677E-17));
#1765=DIRECTION('',(-6.12323399573676E-17,-6.12323399573676E-17,1.));
#1766=CARTESIAN_POINT('',(30.,5.,-54.6));
#1767=AXIS2_PLACEMENT_3D('',#1768,#1769,#1770);
#1768=CARTESIAN_POINT('',(30.,5.,-56.));
#1769=DIRECTION('',(0.,1.,6.12323399573677E-17));
#1770=DIRECTION('',(-6.12323399573676E-17,-6.12323399573676E-17,1.));
#1771=CARTESIAN_POINT('',(87.5,5.,-54.6));
#1772=AXIS2_PLACEMENT_3D('',#1773,#1774,#1775);
#1773=CARTESIAN_POINT('',(87.5,5.,-56.));
#1774=DIRECTION('',(0.,1.,6.12323399573677E-17));
#1775=DIRECTION('',(-6.12323399573676E-17,-6.12323399573676E-17,1.));
#1776=CARTESIAN_POINT('',(-105.,3.67394039744206E-15,-60.));
#1777=CARTESIAN_POINT('',(-105.,-3.67394039744206E-15,60.));
#1778=CARTESIAN_POINT('',(-105.,3.67394039744206E-15,-60.));
#1779=VECTOR('',#1780,1.);
#1780=DIRECTION('',(0.,-6.12323399573677E-17,1.));
#1781=CARTESIAN_POINT('',(-105.,5.,60.));
#1782=CARTESIAN_POINT('',(-105.,-3.67394039744206E-15,60.));
#1783=VECTOR('',#1784,1.);
#1784=DIRECTION('',(0.,1.,0.));
#1785=CARTESIAN_POINT('',(-105.,5.,52.));
#1786=VECTOR('',#1787,1.);
#1787=DIRECTION('',(0.,0.,1.));
#1788=CARTESIAN_POINT('',(-105.,40.,-52.));
#1789=VECTOR('',#1790,1.);
#1790=DIRECTION('',(0.,0.,1.));
#1791=CARTESIAN_POINT('',(-105.,3.67394039744206E-15,-60.));
#1792=VECTOR('',#1793,1.);
#1793=DIRECTION('',(0.,1.,0.));
#1794=CARTESIAN_POINT('',(-105.,11.,-20.));
#1795=AXIS2_PLACEMENT_3D('',#1796,#1797,#1798);
#1796=CARTESIAN_POINT('',(-105.,22.5,-20.));
#1797=DIRECTION('',(-1.,0.,0.));
#1798=DIRECTION('',(0.,-1.,-6.12323399573677E-17));
#1799=CARTESIAN_POINT('',(40.4785605315752,24.9149445136642,-50.));
#1800=AXIS2_PLACEMENT_3D('',#1801,#1802,#1803);
#1801=CARTESIAN_POINT('',(51.4785605315752,24.9149445136642,-50.));
#1802=DIRECTION('',(6.76707367390572E-17,0.,-1.));
#1803=DIRECTION('',(-1.,0.,-6.76707367390572E-17));
#1804=CARTESIAN_POINT('',(-105.,5.,60.));
#1805=VECTOR('',#1806,1.);
#1806=DIRECTION('',(1.,0.,6.76707367390572E-17));
#1807=CARTESIAN_POINT('',(-87.5,5.,54.6));
#1808=AXIS2_PLACEMENT_3D('',#1809,#1810,#1811);
#1809=CARTESIAN_POINT('',(-87.5,5.,56.));
#1810=DIRECTION('',(0.,1.,6.12323399573677E-17));
#1811=DIRECTION('',(6.12323399573676E-17,6.12323399573676E-17,-1.));
#1812=CARTESIAN_POINT('',(-30.,5.,54.6));
#1813=AXIS2_PLACEMENT_3D('',#1814,#1815,#1816);
#1814=CARTESIAN_POINT('',(-30.,5.,56.));
#1815=DIRECTION('',(0.,1.,6.12323399573677E-17));
#1816=DIRECTION('',(6.12323399573676E-17,6.12323399573676E-17,-1.));
#1817=CARTESIAN_POINT('',(30.,5.,54.6));
#1818=AXIS2_PLACEMENT_3D('',#1819,#1820,#1821);
#1819=CARTESIAN_POINT('',(30.,5.,56.));
#1820=DIRECTION('',(0.,1.,6.12323399573677E-17));
#1821=DIRECTION('',(6.12323399573676E-17,6.12323399573676E-17,-1.));
#1822=CARTESIAN_POINT('',(87.5,5.,54.6));
#1823=AXIS2_PLACEMENT_3D('',#1824,#1825,#1826);
#1824=CARTESIAN_POINT('',(87.5,5.,56.));
#1825=DIRECTION('',(0.,1.,6.12323399573677E-17));
#1826=DIRECTION('',(6.12323399573676E-17,6.12323399573676E-17,-1.));
#1827=CARTESIAN_POINT('',(-2.,17.,-39.));
#1828=VECTOR('',#1829,1.);
#1829=DIRECTION('',(1.,0.,0.));
#1830=CARTESIAN_POINT('',(-2.,20.,-36.));
#1831=VECTOR('',#1832,1.);
#1832=DIRECTION('',(1.,0.,0.));
#1833=CARTESIAN_POINT('',(-2.,8.,-39.));
#1834=VECTOR('',#1835,1.);
#1835=DIRECTION('',(1.,0.,0.));
#1836=CARTESIAN_POINT('',(-2.,8.,-21.));
#1837=VECTOR('',#1838,1.);
#1838=DIRECTION('',(1.,0.,0.));
#1839=CARTESIAN_POINT('',(-2.,17.,-21.));
#1840=VECTOR('',#1841,1.);
#1841=DIRECTION('',(1.,0.,0.));
#1842=CARTESIAN_POINT('',(-2.,20.,-24.));
#1843=VECTOR('',#1844,1.);
#1844=DIRECTION('',(1.,0.,0.));
#1845=CARTESIAN_POINT('',(-86.75,11.,-32.));
#1846=AXIS2_PLACEMENT_3D('',#1847,#1848,#1849);
#1847=CARTESIAN_POINT('',(-86.75,11.,-28.));
#1848=DIRECTION('',(0.,1.,6.12323399573677E-17));
#1849=DIRECTION('',(6.12323399573677E-17,6.12323399573677E-17,-1.));
#1850=CARTESIAN_POINT('',(-17.25,11.,-32.));
#1851=AXIS2_PLACEMENT_3D('',#1852,#1853,#1854);
#1852=CARTESIAN_POINT('',(-17.25,11.,-28.));
#1853=DIRECTION('',(0.,1.,6.12323399573677E-17));
#1854=DIRECTION('',(6.12323399573677E-17,6.12323399573677E-17,-1.));
#1855=CARTESIAN_POINT('',(-17.25,11.,29.75));
#1856=AXIS2_PLACEMENT_3D('',#1857,#1858,#1859);
#1857=CARTESIAN_POINT('',(-17.25,11.,33.75));
#1858=DIRECTION('',(0.,1.,6.12323399573677E-17));
#1859=DIRECTION('',(6.12323399573677E-17,6.12323399573677E-17,-1.));
#1860=CARTESIAN_POINT('',(-86.75,11.,29.75));
#1861=AXIS2_PLACEMENT_3D('',#1862,#1863,#1864);
#1862=CARTESIAN_POINT('',(-86.75,11.,33.75));
#1863=DIRECTION('',(0.,1.,6.12323399573677E-17));
#1864=DIRECTION('',(6.12323399573677E-17,6.12323399573677E-17,-1.));
#1865=CARTESIAN_POINT('',(-105.,-3.67394039744206E-15,60.));
#1866=VECTOR('',#1867,1.);
#1867=DIRECTION('',(1.,0.,6.76707367390572E-17));
#1868=CARTESIAN_POINT('',(105.,3.67394039744206E-15,-60.));
#1869=VECTOR('',#1870,1.);
#1870=DIRECTION('',(-1.,0.,-6.76707367390572E-17));
#1871=CARTESIAN_POINT('',(-87.5,-6.89599944047278E-15,54.6));
#1872=AXIS2_PLACEMENT_3D('',#1873,#1874,#1875);
#1873=CARTESIAN_POINT('',(-87.5,-3.42901103761259E-15,56.));
#1874=DIRECTION('',(0.,1.,6.12323399573677E-17));
#1875=DIRECTION('',(6.12323399573676E-17,6.12323399573676E-17,-1.));
#1876=CARTESIAN_POINT('',(-30.,-6.89599944047278E-15,54.6));
#1877=AXIS2_PLACEMENT_3D('',#1878,#1879,#1880);
#1878=CARTESIAN_POINT('',(-30.,-3.42901103761259E-15,56.));
#1879=DIRECTION('',(0.,1.,6.12323399573677E-17));
#1880=DIRECTION('',(6.12323399573676E-17,6.12323399573676E-17,-1.));
#1881=CARTESIAN_POINT('',(30.,-6.89599944047278E-15,54.6));
#1882=AXIS2_PLACEMENT_3D('',#1883,#1884,#1885);
#1883=CARTESIAN_POINT('',(30.,-3.42901103761259E-15,56.));
#1884=DIRECTION('',(0.,1.,6.12323399573677E-17));
#1885=DIRECTION('',(6.12323399573676E-17,6.12323399573676E-17,-1.));
#1886=CARTESIAN_POINT('',(87.5,-6.89599944047278E-15,54.6));
#1887=AXIS2_PLACEMENT_3D('',#1888,#1889,#1890);
#1888=CARTESIAN_POINT('',(87.5,-3.42901103761259E-15,56.));
#1889=DIRECTION('',(0.,1.,6.12323399573677E-17));
#1890=DIRECTION('',(6.12323399573676E-17,6.12323399573676E-17,-1.));
#1891=CARTESIAN_POINT('',(-87.5,-2.09427917128226E-16,-54.6));
#1892=AXIS2_PLACEMENT_3D('',#1893,#1894,#1895);
#1893=CARTESIAN_POINT('',(-87.5,3.42901103761259E-15,-56.));
#1894=DIRECTION('',(0.,1.,6.12323399573677E-17));
#1895=DIRECTION('',(-6.12323399573676E-17,-6.12323399573676E-17,1.));
#1896=CARTESIAN_POINT('',(-30.,-2.09427917128226E-16,-54.6));
#1897=AXIS2_PLACEMENT_3D('',#1898,#1899,#1900);
#1898=CARTESIAN_POINT('',(-30.,3.42901103761259E-15,-56.));
#1899=DIRECTION('',(0.,1.,6.12323399573677E-17));
#1900=DIRECTION('',(-6.12323399573676E-17,-6.12323399573676E-17,1.));
#1901=CARTESIAN_POINT('',(30.,-2.09427917128227E-16,-54.6));
#1902=AXIS2_PLACEMENT_3D('',#1903,#1904,#1905);
#1903=CARTESIAN_POINT('',(30.,3.42901103761259E-15,-56.));
#1904=DIRECTION('',(0.,1.,6.12323399573677E-17));
#1905=DIRECTION('',(-6.12323399573676E-17,-6.12323399573676E-17,1.));
#1906=CARTESIAN_POINT('',(87.5,-2.09427917128227E-16,-54.6));
#1907=AXIS2_PLACEMENT_3D('',#1908,#1909,#1910);
#1908=CARTESIAN_POINT('',(87.5,3.42901103761259E-15,-56.));
#1909=DIRECTION('',(0.,1.,6.12323399573677E-17));
#1910=DIRECTION('',(-6.12323399573676E-17,-6.12323399573676E-17,1.));
#1911=CARTESIAN_POINT('',(-86.75,11.,-29.4));
#1912=AXIS2_PLACEMENT_3D('',#1913,#1914,#1915);
#1913=CARTESIAN_POINT('',(-86.75,11.,-28.));
#1914=DIRECTION('',(0.,1.,6.12323399573677E-17));
#1915=DIRECTION('',(6.12323399573676E-17,6.12323399573676E-17,-1.));
#1916=CARTESIAN_POINT('',(-17.25,11.,-29.4));
#1917=AXIS2_PLACEMENT_3D('',#1918,#1919,#1920);
#1918=CARTESIAN_POINT('',(-17.25,11.,-28.));
#1919=DIRECTION('',(0.,1.,6.12323399573677E-17));
#1920=DIRECTION('',(6.12323399573676E-17,6.12323399573676E-17,-1.));
#1921=CARTESIAN_POINT('',(-17.25,11.,32.35));
#1922=AXIS2_PLACEMENT_3D('',#1923,#1924,#1925);
#1923=CARTESIAN_POINT('',(-17.25,11.,33.75));
#1924=DIRECTION('',(0.,1.,6.12323399573677E-17));
#1925=DIRECTION('',(6.12323399573676E-17,6.12323399573676E-17,-1.));
#1926=CARTESIAN_POINT('',(-86.75,11.,32.35));
#1927=AXIS2_PLACEMENT_3D('',#1928,#1929,#1930);
#1928=CARTESIAN_POINT('',(-86.75,11.,33.75));
#1929=DIRECTION('',(0.,1.,6.12323399573677E-17));
#1930=DIRECTION('',(6.12323399573676E-17,6.12323399573676E-17,-1.));
#1931=CARTESIAN_POINT('',(-86.75,5.,-29.4));
#1932=AXIS2_PLACEMENT_3D('',#1933,#1934,#1935);
#1933=CARTESIAN_POINT('',(-86.75,5.,-28.));
#1934=DIRECTION('',(0.,1.,6.12323399573677E-17));
#1935=DIRECTION('',(6.12323399573676E-17,6.12323399573676E-17,-1.));
#1936=CARTESIAN_POINT('',(-17.25,5.,-29.4));
#1937=AXIS2_PLACEMENT_3D('',#1938,#1939,#1940);
#1938=CARTESIAN_POINT('',(-17.25,5.,-28.));
#1939=DIRECTION('',(0.,1.,6.12323399573677E-17));
#1940=DIRECTION('',(6.12323399573676E-17,6.12323399573676E-17,-1.));
#1941=CARTESIAN_POINT('',(-17.25,5.,32.35));
#1942=AXIS2_PLACEMENT_3D('',#1943,#1944,#1945);
#1943=CARTESIAN_POINT('',(-17.25,5.,33.75));
#1944=DIRECTION('',(0.,1.,6.12323399573677E-17));
#1945=DIRECTION('',(6.12323399573676E-17,6.12323399573676E-17,-1.));
#1946=CARTESIAN_POINT('',(-86.75,5.,32.35));
#1947=AXIS2_PLACEMENT_3D('',#1948,#1949,#1950);
#1948=CARTESIAN_POINT('',(-86.75,5.,33.75));
#1949=DIRECTION('',(0.,1.,6.12323399573677E-17));
#1950=DIRECTION('',(6.12323399573676E-17,6.12323399573676E-17,-1.));
ENDSEC;
END-ISO-10303-21;
